<svg version="1.1" id="Layer_1" xmlns="http://www.w3.org/2000/svg" xmlns:xlink="http://www.w3.org/1999/xlink" x="0px" y="0px"
	 width="100%" viewBox="0 0 1472 832" enable-background="new 0 0 1472 832" xml:space="preserve">
<path fill="#000000" opacity="1.000000" stroke="none" 
	d="
M959.000000,833.000000 
	C639.333313,833.000000 320.166656,833.000000 1.000000,833.000000 
	C1.000000,555.666687 1.000000,278.333344 1.000000,1.000000 
	C491.666656,1.000000 982.333313,1.000000 1473.000000,1.000000 
	C1473.000000,278.333344 1473.000000,555.666687 1473.000000,833.000000 
	C1301.833374,833.000000 1130.666626,833.000000 959.000000,833.000000 
M643.992981,415.192627 
	C643.995300,409.216400 643.999878,403.240204 643.999451,397.263977 
	C643.998413,383.957062 643.885620,370.649048 644.019897,357.343506 
	C644.189270,340.556427 644.559387,323.771423 644.971375,306.057831 
	C644.556519,298.744080 646.171509,291.290527 643.836182,283.967316 
	C600.750977,283.967316 558.040405,283.962952 515.329834,283.974274 
	C511.231018,283.975372 507.132233,284.073914 502.345276,284.007538 
	C501.539551,284.294128 500.733826,284.580719 499.179993,284.928436 
	C498.179291,284.939758 497.178619,284.951080 495.716614,284.212646 
	C491.818329,284.156647 487.920044,284.100647 483.346954,283.887390 
	C482.891266,283.940765 482.435577,283.994171 481.189575,283.969543 
	C480.131927,283.991272 479.074310,284.013031 477.345245,283.878418 
	C476.891479,283.929626 476.437683,283.980835 475.051514,283.953552 
	C441.872040,283.948730 408.692474,283.912964 375.513367,284.021301 
	C373.664459,284.027313 371.819458,285.223816 369.197998,286.303741 
	C369.132202,286.963318 369.008820,287.622925 369.008759,288.282501 
	C368.999939,374.035553 368.996521,459.788574 369.036682,545.541626 
	C369.037262,546.739502 369.590454,547.937195 370.193573,549.879211 
	C374.653168,549.928162 379.112701,550.017883 383.572327,550.019592 
	C415.977936,550.031982 448.383667,549.977295 480.789062,550.065430 
	C487.864136,550.084656 494.937897,550.593994 502.803528,550.986389 
	C506.807709,551.027039 510.815369,551.193359 514.815430,551.083984 
	C525.405762,550.794434 535.991638,550.120911 546.581421,550.074402 
	C576.728882,549.942261 606.877502,550.061279 637.025574,550.018066 
	C638.701965,550.015625 640.377625,549.440186 642.493103,548.959656 
	C642.493103,548.959656 642.961609,548.902710 643.542908,549.007019 
	C643.697327,548.679260 643.851807,548.351501 644.059326,547.138489 
	C644.380432,544.090698 644.946472,541.045410 644.978760,537.994568 
	C645.096985,526.814331 645.164856,515.630554 645.017822,504.451141 
	C644.744263,483.646393 644.306580,462.843781 644.112915,441.708649 
	C644.112915,441.708649 644.051941,441.338379 644.626648,441.023193 
	C644.435852,440.571564 644.245117,440.119934 644.110474,439.297760 
	C644.110474,439.297760 643.932861,438.967743 643.982300,438.100220 
	C643.934326,430.737793 643.886353,423.375336 643.992981,415.192627 
M987.800720,391.084656 
	C986.950073,402.169495 986.099426,413.254364 985.205872,424.897400 
	C989.962708,425.552063 994.308289,426.150116 999.146057,426.815918 
	C1002.425232,403.523224 1005.632202,380.743103 1008.839172,357.962982 
	C1009.173401,357.931335 1009.507629,357.899689 1009.841797,357.868042 
	C1019.401428,378.847046 1028.961060,399.826080 1038.689819,421.176331 
	C1044.555542,418.690674 1049.971680,416.395508 1056.407593,413.668213 
	C1050.305542,407.646423 1054.117554,402.741760 1056.572266,397.690491 
	C1063.121338,384.213989 1069.643677,370.724548 1076.204346,357.253754 
	C1076.812866,356.004303 1077.618896,354.851013 1079.132935,352.312134 
	C1080.481567,378.043457 1081.748413,402.213165 1083.042114,426.896362 
	C1090.421631,426.176331 1097.067261,425.527924 1103.940063,424.857361 
	C1100.710938,400.590607 1097.185791,377.218994 1094.652832,353.740356 
	C1093.392212,342.056335 1087.567383,330.188019 1095.122803,318.052063 
	C1088.531494,317.293152 1082.539062,316.918701 1076.682495,315.819946 
	C1072.659058,315.065125 1071.191040,316.481567 1069.935913,320.083832 
	C1062.488403,341.458374 1054.809326,362.752289 1047.191895,384.067505 
	C1046.602905,385.715912 1045.889404,387.319824 1044.777832,390.074280 
	C1043.145508,386.779724 1042.032349,384.613037 1040.988525,382.413361 
	C1030.996338,361.357147 1021.053345,340.277374 1010.953735,319.272888 
	C1010.228882,317.765289 1008.309326,315.680939 1007.073242,315.764282 
	C1000.841797,316.184326 994.652771,317.234711 989.840088,317.877899 
	C990.533142,324.478699 991.931213,330.456177 991.635376,336.348602 
	C990.734009,354.301514 989.179504,372.221680 987.800720,391.084656 
M858.195129,413.705902 
	C859.819824,412.038300 861.584106,410.484222 863.047546,408.685364 
	C876.791077,391.792847 877.996155,372.480133 873.025513,352.413940 
	C867.890564,331.684753 853.697327,319.248291 832.542419,317.462372 
	C822.854370,316.644501 812.942322,317.825684 803.184204,318.690918 
	C794.828613,319.431824 786.547729,321.015198 777.811890,322.287415 
	C778.874756,326.880432 779.721436,330.539337 780.591736,334.300110 
	C783.086243,334.300110 785.181335,334.300110 787.593445,334.300110 
	C788.429626,364.565460 789.259338,394.597748 790.099426,425.002380 
	C802.791443,425.002380 814.760620,424.994568 826.729797,425.004608 
	C838.309570,425.014313 848.669556,421.574554 858.195129,413.705902 
M940.538147,324.445770 
	C940.911987,323.259735 941.285767,322.073669 941.752441,320.592834 
	C936.317566,319.261871 931.222656,318.341705 926.359131,316.725250 
	C922.035767,315.288239 920.304138,316.516296 918.804077,320.748474 
	C907.013428,354.012817 894.964722,387.185669 883.014709,420.393555 
	C882.528687,421.744049 882.233643,423.163208 881.698853,425.095032 
	C885.565247,425.654755 888.966309,426.468201 892.373108,426.492920 
	C893.877808,426.503845 896.111389,425.284180 896.778320,423.987518 
	C899.362671,418.963013 901.548218,413.722778 903.678650,408.480103 
	C904.674377,406.029816 905.949219,404.901001 908.809570,404.936371 
	C921.970764,405.099182 935.135559,405.071655 948.297791,404.957153 
	C951.056335,404.933167 952.517578,405.740692 953.309814,408.516022 
	C954.770691,413.633636 956.486206,418.690491 958.380249,423.664276 
	C958.862549,424.930573 960.460449,426.731354 961.466553,426.681732 
	C967.572815,426.380646 973.656128,425.615051 980.122498,424.966949 
	C979.507629,423.132324 979.171326,421.862427 978.667053,420.663177 
	C966.276123,391.195740 953.836304,361.748749 941.525635,332.247864 
	C940.620422,330.078613 940.624268,327.530060 940.538147,324.445770 
M705.086670,344.524170 
	C695.476562,371.221741 685.866455,397.919312 676.077271,425.114502 
	C680.620300,425.741455 684.375244,426.505463 688.151611,426.632507 
	C689.299316,426.671112 691.012024,425.198120 691.598511,423.994751 
	C694.149231,418.760681 696.205261,413.281830 698.842468,408.096100 
	C699.552917,406.698944 701.660645,405.168823 703.151306,405.143738 
	C716.643250,404.916779 730.142090,404.919128 743.634155,405.144043 
	C745.076904,405.168121 747.229065,406.739380 747.783020,408.106995 
	C749.840942,413.187988 751.212158,418.544647 753.202209,423.657318 
	C753.715698,424.976501 755.589050,426.719086 756.766357,426.666565 
	C762.715454,426.401123 768.641052,425.607269 775.111511,424.943726 
	C774.015015,422.261902 773.163818,420.128204 772.273804,418.010864 
	C760.983582,391.152679 749.661377,364.307861 738.415833,337.431030 
	C736.189880,332.111145 732.076782,326.979553 736.990295,320.688385 
	C730.610901,319.132904 725.089783,317.942200 719.667236,316.403717 
	C716.615723,315.537994 715.126526,316.327637 714.104187,319.337494 
	C711.320740,327.532196 708.283081,335.640503 705.086670,344.524170 
M703.296448,511.315002 
	C706.204041,517.398804 708.112122,517.542847 714.876770,512.189270 
	C713.734070,507.811951 723.539368,484.667725 728.707153,479.809662 
	C729.408691,493.171631 730.101868,506.373657 730.823059,520.108765 
	C735.114319,519.669006 738.655945,519.306030 742.607178,518.901123 
	C741.170593,507.933136 739.742432,497.573792 738.475525,487.194763 
	C737.342529,477.912659 736.387451,468.608826 735.253296,458.410675 
	C734.821167,458.358093 732.804321,458.429840 731.008972,457.834198 
	C725.875366,456.130981 723.745728,458.171570 722.168152,463.096497 
	C718.376526,474.933167 713.953369,486.567566 709.479919,499.141052 
	C708.304871,496.927460 707.492798,495.531799 706.803650,494.077911 
	C701.526062,482.943817 696.331787,471.769470 690.937073,460.692657 
	C690.255615,459.293488 688.584595,457.469147 687.330322,457.436310 
	C684.296143,457.356934 681.237305,458.219849 678.200012,458.701080 
	C678.684021,461.654510 679.541748,464.088593 679.396179,466.461090 
	C678.539734,480.422211 677.431946,494.367767 676.450439,508.321503 
	C676.208069,511.766449 676.120300,515.222290 675.947693,518.972229 
	C678.702332,519.319824 680.938721,519.602112 683.586487,519.936218 
	C685.457214,506.987366 687.259521,494.512238 689.061829,482.037079 
	C689.376770,482.038300 689.691772,482.039490 690.006714,482.040710 
	C694.336304,491.564972 698.665833,501.089264 703.296448,511.315002 
M1032.450317,476.848694 
	C1030.954102,483.926239 1029.458008,491.003754 1027.961792,498.081299 
	C1024.472168,485.529816 1018.070618,473.946533 1017.906982,460.377228 
	C1014.552063,459.954498 1010.983643,459.504883 1006.972656,458.999512 
	C1004.156067,471.833679 1001.415039,484.323395 998.674072,496.813141 
	C997.003235,495.043427 996.467529,493.367737 996.068298,491.660095 
	C993.682190,481.453857 991.405579,471.220825 988.872803,461.051453 
	C988.520264,459.636047 986.969849,457.471619 985.953735,457.460236 
	C982.569519,457.422241 979.176147,458.207031 975.218933,458.754974 
	C981.477722,479.473511 987.563782,499.620331 993.796021,520.250854 
	C997.196228,519.250610 1000.089233,518.399597 1001.992004,517.839844 
	C1002.880493,504.008392 1008.889526,492.886597 1012.356079,481.002350 
	C1012.807190,481.091400 1013.258362,481.180450 1013.709534,481.269501 
	C1016.597900,494.152252 1019.486328,507.035004 1022.440369,520.210510 
	C1026.410767,519.259766 1029.586304,518.499329 1031.589233,518.019714 
	C1032.668945,512.862732 1033.229614,508.502106 1034.511475,504.364929 
	C1039.176270,489.310242 1044.082397,474.330292 1049.073853,458.772766 
	C1045.973511,458.318359 1043.365967,458.107208 1040.844971,457.522614 
	C1037.816040,456.820282 1036.252441,457.461243 1035.746948,460.871765 
	C1034.991943,465.965485 1033.727661,470.983734 1032.450317,476.848694 
M1060.335571,458.981262 
	C1058.348999,459.689209 1056.362427,460.397125 1054.949585,460.900604 
	C1055.599121,464.522552 1056.484009,467.535309 1056.627075,470.582947 
	C1057.298340,484.876221 1057.750488,499.179657 1058.321899,513.477844 
	C1058.404663,515.549805 1058.708496,517.612915 1058.954102,520.130127 
	C1061.935791,519.624451 1064.311279,519.221619 1067.141357,518.741638 
	C1067.141357,505.547974 1067.141357,492.692047 1067.141357,479.836121 
	C1069.147827,481.169739 1070.219116,482.769958 1071.273193,484.381348 
	C1078.469238,495.380951 1085.551270,506.458649 1092.991577,517.290344 
	C1093.942627,518.674927 1096.817383,519.424805 1098.679688,519.240967 
	C1099.809082,519.129517 1101.517578,516.693848 1101.582886,515.240234 
	C1102.382812,497.455536 1102.974976,479.660553 1103.427124,461.863281 
	C1103.457397,460.671173 1102.152344,458.713715 1101.071533,458.373810 
	C1098.664307,457.616821 1096.005859,457.659271 1092.829224,457.307068 
	C1092.829224,472.212067 1092.829224,486.515503 1092.829224,500.818970 
	C1084.348145,487.912872 1076.563477,474.957062 1069.140747,461.797119 
	C1067.055786,458.100830 1064.970947,456.569244 1060.335571,458.981262 
M962.667419,465.837708 
	C947.802795,450.955627 924.795532,456.215271 918.129028,476.098816 
	C915.231018,484.742584 915.420654,493.505096 918.374756,502.094330 
	C922.268311,513.414978 931.237549,519.863403 942.808960,519.996948 
	C954.830444,520.135681 964.099487,514.106628 967.903564,502.461548 
	C972.017090,489.869629 971.504395,477.513855 962.667419,465.837708 
M888.510437,492.673584 
	C892.004883,492.672363 895.504761,492.550781 898.992065,492.707428 
	C901.864868,492.836426 902.879333,491.600189 902.697327,488.859497 
	C902.560913,486.804688 902.670349,484.733582 902.670349,482.367126 
	C893.684692,483.074890 885.652405,483.707581 877.011414,484.388214 
	C877.011414,480.013519 877.232178,476.373199 876.951111,472.772064 
	C876.652832,468.950806 877.812683,467.391846 881.896851,467.593109 
	C888.204834,467.903961 894.563721,467.332825 900.855042,467.781067 
	C905.965271,468.145142 907.419983,466.077881 906.660645,461.500702 
	C906.479919,460.411072 906.239624,459.331299 905.940430,457.807312 
	C890.858582,458.783295 876.043152,459.742035 860.557007,460.744171 
	C861.499084,463.501190 861.625916,466.380096 862.841614,466.954498 
	C866.335510,468.605469 865.833557,471.398224 865.904602,474.112122 
	C866.170349,484.258698 866.312561,494.408630 866.592407,504.554749 
	C866.723328,509.299866 867.062805,514.039246 867.299683,518.624756 
	C881.162292,518.624756 894.390198,518.624756 907.701721,518.624756 
	C907.701721,515.157410 907.701721,512.079407 907.701721,508.570221 
	C897.499084,509.228699 887.623474,509.866028 877.366699,510.527985 
	C877.366699,504.403748 877.366699,498.857330 877.366699,492.672852 
	C880.950745,492.672852 884.235229,492.672852 888.510437,492.673584 
M852.796631,510.664734 
	C846.867188,502.632172 841.067749,494.498505 834.940735,486.619629 
	C832.670105,483.699829 832.997742,481.976166 835.656982,479.616119 
	C841.629150,474.315765 847.342041,468.722168 853.124451,463.210175 
	C854.104736,462.275757 854.905396,461.152863 855.948730,459.929840 
	C845.050049,456.482666 845.040649,456.474609 838.311462,464.340454 
	C833.166992,470.353943 828.050171,476.391083 821.873474,483.648529 
	C821.873474,475.541992 821.978455,468.979950 821.788147,462.426483 
	C821.748352,461.055328 820.879333,458.796906 819.944153,458.532440 
	C817.034973,457.709686 813.910400,457.648407 810.361877,457.232239 
	C810.910217,478.488922 811.440002,499.023895 811.984253,520.122864 
	C815.634521,519.647705 818.522705,519.271667 821.877502,518.834961 
	C821.877502,510.994690 821.642517,503.521881 822.017761,496.079834 
	C822.133423,493.785858 823.914124,491.575867 824.932434,489.327423 
	C832.158813,498.760559 837.699158,507.824127 843.387390,516.793945 
	C844.181519,518.046265 845.736084,519.721924 846.880249,519.678101 
	C850.404541,519.543152 853.900574,518.669495 858.079651,517.970398 
	C856.110168,515.253357 854.656982,513.248535 852.796631,510.664734 
M765.468872,503.890015 
	C760.301453,496.306671 760.075989,487.983246 761.975586,479.422821 
	C763.787903,471.255951 769.192078,466.267151 776.447632,465.769012 
	C785.225281,465.166382 788.032593,467.313721 791.822937,477.082672 
	C792.229248,478.129852 793.824219,479.410828 794.796448,479.354431 
	C795.836670,479.294128 797.386169,477.936462 797.670776,476.867584 
	C798.436096,473.992645 798.988098,470.964447 798.942688,468.007568 
	C798.916870,466.321686 798.001160,464.113586 796.725830,463.067505 
	C786.440063,454.630432 768.265076,455.620605 759.140137,465.285614 
	C749.282532,475.726593 748.463135,488.337280 752.454285,501.251587 
	C758.429138,520.584900 782.769714,526.438782 797.382690,512.411438 
	C802.090515,507.892456 802.023743,506.981537 796.692505,502.997833 
	C781.994507,513.246094 774.782227,513.592224 765.468872,503.890015 
z"/>
<path fill="#175B87" opacity="1.000000" stroke="none" 
	d="
M987.839966,390.619629 
	C989.179504,372.221680 990.734009,354.301514 991.635376,336.348602 
	C991.931213,330.456177 990.533142,324.478699 989.840088,317.877899 
	C994.652771,317.234711 1000.841797,316.184326 1007.073242,315.764282 
	C1008.309326,315.680939 1010.228882,317.765289 1010.953735,319.272888 
	C1021.053345,340.277374 1030.996338,361.357147 1040.988525,382.413361 
	C1042.032349,384.613037 1043.145508,386.779724 1044.777832,390.074280 
	C1045.889404,387.319824 1046.602905,385.715912 1047.191895,384.067505 
	C1054.809326,362.752289 1062.488403,341.458374 1069.935913,320.083832 
	C1071.191040,316.481567 1072.659058,315.065125 1076.682495,315.819946 
	C1082.539062,316.918701 1088.531494,317.293152 1095.122803,318.052063 
	C1087.567383,330.188019 1093.392212,342.056335 1094.652832,353.740356 
	C1097.185791,377.218994 1100.710938,400.590607 1103.940063,424.857361 
	C1097.067261,425.527924 1090.421631,426.176331 1083.042114,426.896362 
	C1081.748413,402.213165 1080.481567,378.043457 1079.132935,352.312134 
	C1077.618896,354.851013 1076.812866,356.004303 1076.204346,357.253754 
	C1069.643677,370.724548 1063.121338,384.213989 1056.572266,397.690491 
	C1054.117554,402.741760 1050.305542,407.646423 1056.407593,413.668213 
	C1049.971680,416.395508 1044.555542,418.690674 1038.689819,421.176331 
	C1028.961060,399.826080 1019.401428,378.847046 1009.841797,357.868042 
	C1009.507629,357.899689 1009.173401,357.931335 1008.839172,357.962982 
	C1005.632202,380.743103 1002.425232,403.523224 999.146057,426.815918 
	C994.308289,426.150116 989.962708,425.552063 985.205872,424.897400 
	C986.099426,413.254364 986.950073,402.169495 987.839966,390.619629 
z"/>
<path fill="#175B87" opacity="1.000000" stroke="none" 
	d="
M857.910400,413.920593 
	C848.669556,421.574554 838.309570,425.014313 826.729797,425.004608 
	C814.760620,424.994568 802.791443,425.002380 790.099426,425.002380 
	C789.259338,394.597748 788.429626,364.565460 787.593445,334.300110 
	C785.181335,334.300110 783.086243,334.300110 780.591736,334.300110 
	C779.721436,330.539337 778.874756,326.880432 777.811890,322.287415 
	C786.547729,321.015198 794.828613,319.431824 803.184204,318.690918 
	C812.942322,317.825684 822.854370,316.644501 832.542419,317.462372 
	C853.697327,319.248291 867.890564,331.684753 873.025513,352.413940 
	C877.996155,372.480133 876.791077,391.792847 863.047546,408.685364 
	C861.584106,410.484222 859.819824,412.038300 857.910400,413.920593 
M836.800903,334.478668 
	C827.195923,330.574432 817.269348,332.264496 807.323486,332.207062 
	C807.323486,358.674774 807.323486,384.559082 807.323486,410.710114 
	C814.244873,410.710114 820.881836,411.096313 827.458252,410.629944 
	C841.246826,409.652069 849.639099,401.419739 853.835815,388.907440 
	C857.810486,377.057129 857.416687,364.918304 853.435730,353.104065 
	C850.688660,344.951782 845.606506,338.470612 836.800903,334.478668 
z"/>
<path fill="#175B87" opacity="1.000000" stroke="none" 
	d="
M940.371826,324.801819 
	C940.624268,327.530060 940.620422,330.078613 941.525635,332.247864 
	C953.836304,361.748749 966.276123,391.195740 978.667053,420.663177 
	C979.171326,421.862427 979.507629,423.132324 980.122498,424.966949 
	C973.656128,425.615051 967.572815,426.380646 961.466553,426.681732 
	C960.460449,426.731354 958.862549,424.930573 958.380249,423.664276 
	C956.486206,418.690491 954.770691,413.633636 953.309814,408.516022 
	C952.517578,405.740692 951.056335,404.933167 948.297791,404.957153 
	C935.135559,405.071655 921.970764,405.099182 908.809570,404.936371 
	C905.949219,404.901001 904.674377,406.029816 903.678650,408.480103 
	C901.548218,413.722778 899.362671,418.963013 896.778320,423.987518 
	C896.111389,425.284180 893.877808,426.503845 892.373108,426.492920 
	C888.966309,426.468201 885.565247,425.654755 881.698853,425.095032 
	C882.233643,423.163208 882.528687,421.744049 883.014709,420.393555 
	C894.964722,387.185669 907.013428,354.012817 918.804077,320.748474 
	C920.304138,316.516296 922.035767,315.288239 926.359131,316.725250 
	C931.222656,318.341705 936.317566,319.261871 941.752441,320.592834 
	C941.285767,322.073669 940.911987,323.259735 940.371826,324.801819 
M911.693298,390.204010 
	C912.611206,390.844635 913.555237,392.067078 914.442627,392.027252 
	C918.760986,391.833496 923.070557,391.359100 927.371216,390.876282 
	C933.570068,390.180359 939.758484,389.391388 946.688416,388.552917 
	C941.794678,373.682159 937.151672,359.573181 932.508667,345.464233 
	C932.125366,345.439392 931.742065,345.414520 931.358765,345.389679 
	C924.891663,360.084137 918.424561,374.778564 911.693298,390.204010 
z"/>
<path fill="#175B87" opacity="1.000000" stroke="none" 
	d="
M705.216431,344.153625 
	C708.283081,335.640503 711.320740,327.532196 714.104187,319.337494 
	C715.126526,316.327637 716.615723,315.537994 719.667236,316.403717 
	C725.089783,317.942200 730.610901,319.132904 736.990295,320.688385 
	C732.076782,326.979553 736.189880,332.111145 738.415833,337.431030 
	C749.661377,364.307861 760.983582,391.152679 772.273804,418.010864 
	C773.163818,420.128204 774.015015,422.261902 775.111511,424.943726 
	C768.641052,425.607269 762.715454,426.401123 756.766357,426.666565 
	C755.589050,426.719086 753.715698,424.976501 753.202209,423.657318 
	C751.212158,418.544647 749.840942,413.187988 747.783020,408.106995 
	C747.229065,406.739380 745.076904,405.168121 743.634155,405.144043 
	C730.142090,404.919128 716.643250,404.916779 703.151306,405.143738 
	C701.660645,405.168823 699.552917,406.698944 698.842468,408.096100 
	C696.205261,413.281830 694.149231,418.760681 691.598511,423.994751 
	C691.012024,425.198120 689.299316,426.671112 688.151611,426.632507 
	C684.375244,426.505463 680.620300,425.741455 676.077271,425.114502 
	C685.866455,397.919312 695.476562,371.221741 705.216431,344.153625 
M727.770447,390.126343 
	C732.138123,389.647888 736.505798,389.169434 741.541260,388.617828 
	C736.525879,373.491364 731.799866,359.237732 726.713257,343.896637 
	C719.430115,360.538391 712.660889,376.005798 705.423035,392.543823 
	C713.376099,391.687286 720.122986,390.960663 727.770447,390.126343 
z"/>
<path fill="#165A86" opacity="1.000000" stroke="none" 
	d="
M703.145935,510.964264 
	C698.665833,501.089264 694.336304,491.564972 690.006714,482.040710 
	C689.691772,482.039490 689.376770,482.038300 689.061829,482.037079 
	C687.259521,494.512238 685.457214,506.987366 683.586487,519.936218 
	C680.938721,519.602112 678.702332,519.319824 675.947693,518.972229 
	C676.120300,515.222290 676.208069,511.766449 676.450439,508.321503 
	C677.431946,494.367767 678.539734,480.422211 679.396179,466.461090 
	C679.541748,464.088593 678.684021,461.654510 678.200012,458.701080 
	C681.237305,458.219849 684.296143,457.356934 687.330322,457.436310 
	C688.584595,457.469147 690.255615,459.293488 690.937073,460.692657 
	C696.331787,471.769470 701.526062,482.943817 706.803650,494.077911 
	C707.492798,495.531799 708.304871,496.927460 709.479919,499.141052 
	C713.953369,486.567566 718.376526,474.933167 722.168152,463.096497 
	C723.745728,458.171570 725.875366,456.130981 731.008972,457.834198 
	C732.804321,458.429840 734.821167,458.358093 735.253296,458.410675 
	C736.387451,468.608826 737.342529,477.912659 738.475525,487.194763 
	C739.742432,497.573792 741.170593,507.933136 742.607178,518.901123 
	C738.655945,519.306030 735.114319,519.669006 730.823059,520.108765 
	C730.101868,506.373657 729.408691,493.171631 728.707153,479.809662 
	C723.539368,484.667725 713.734070,507.811951 714.876770,512.189270 
	C708.112122,517.542847 706.204041,517.398804 703.145935,510.964264 
z"/>
<path fill="#165A86" opacity="1.000000" stroke="none" 
	d="
M1032.565186,476.441406 
	C1033.727661,470.983734 1034.991943,465.965485 1035.746948,460.871765 
	C1036.252441,457.461243 1037.816040,456.820282 1040.844971,457.522614 
	C1043.365967,458.107208 1045.973511,458.318359 1049.073853,458.772766 
	C1044.082397,474.330292 1039.176270,489.310242 1034.511475,504.364929 
	C1033.229614,508.502106 1032.668945,512.862732 1031.589233,518.019714 
	C1029.586304,518.499329 1026.410767,519.259766 1022.440369,520.210510 
	C1019.486328,507.035004 1016.597900,494.152252 1013.709534,481.269501 
	C1013.258362,481.180450 1012.807190,481.091400 1012.356079,481.002350 
	C1008.889526,492.886597 1002.880493,504.008392 1001.992004,517.839844 
	C1000.089233,518.399597 997.196228,519.250610 993.796021,520.250854 
	C987.563782,499.620331 981.477722,479.473511 975.218933,458.754974 
	C979.176147,458.207031 982.569519,457.422241 985.953735,457.460236 
	C986.969849,457.471619 988.520264,459.636047 988.872803,461.051453 
	C991.405579,471.220825 993.682190,481.453857 996.068298,491.660095 
	C996.467529,493.367737 997.003235,495.043427 998.674072,496.813141 
	C1001.415039,484.323395 1004.156067,471.833679 1006.972656,458.999512 
	C1010.983643,459.504883 1014.552063,459.954498 1017.906982,460.377228 
	C1018.070618,473.946533 1024.472168,485.529816 1027.961792,498.081299 
	C1029.458008,491.003754 1030.954102,483.926239 1032.565186,476.441406 
z"/>
<path fill="#C2C6C9" opacity="1.000000" stroke="none" 
	d="
M369.972626,285.866180 
	C371.819458,285.223816 373.664459,284.027313 375.513367,284.021301 
	C408.692474,283.912964 441.872040,283.948730 475.262207,284.332672 
	C470.718994,284.958588 465.965057,285.205383 460.780701,285.398438 
	C453.568268,285.564209 446.786316,285.783752 439.546692,285.996460 
	C435.715820,285.989594 432.342590,285.989594 428.969360,285.989594 
	C428.978455,286.462585 428.987549,286.935577 428.996643,287.408569 
	C433.319305,286.951996 437.417847,286.129181 439.983673,291.361755 
	C442.687531,296.875793 446.567780,301.799377 449.590027,307.174347 
	C453.274719,313.727509 456.600800,320.482361 459.922913,327.426086 
	C458.540405,329.148773 457.317017,330.595367 455.800476,332.171997 
	C454.065979,333.565887 452.624573,334.829803 450.776611,336.069824 
	C444.594727,339.309113 440.184235,336.331757 435.799896,332.941071 
	C432.931152,330.722534 429.879028,328.740875 427.013428,326.518494 
	C423.148163,323.520813 419.115051,320.667847 415.633728,317.262360 
	C409.293701,311.060516 403.204926,304.590912 397.216461,298.045380 
	C394.345367,294.907166 391.942719,291.340424 388.531616,286.940674 
	C393.762329,286.940674 397.558685,286.940674 401.355042,286.940674 
	C401.346191,286.634003 401.337311,286.327362 401.328461,286.020691 
	C396.205566,286.020691 391.082642,286.020691 385.497620,286.016907 
	C383.059601,286.007690 381.083679,285.993530 379.107788,285.998749 
	C375.896545,286.007233 372.416199,285.294495 370.470215,288.722015 
	C370.217743,287.507477 370.095184,286.686829 369.972626,285.866180 
z"/>
<path fill="#175B87" opacity="1.000000" stroke="none" 
	d="
M1060.701172,458.878204 
	C1064.970947,456.569244 1067.055786,458.100830 1069.140747,461.797119 
	C1076.563477,474.957062 1084.348145,487.912872 1092.829224,500.818970 
	C1092.829224,486.515503 1092.829224,472.212067 1092.829224,457.307068 
	C1096.005859,457.659271 1098.664307,457.616821 1101.071533,458.373810 
	C1102.152344,458.713715 1103.457397,460.671173 1103.427124,461.863281 
	C1102.974976,479.660553 1102.382812,497.455536 1101.582886,515.240234 
	C1101.517578,516.693848 1099.809082,519.129517 1098.679688,519.240967 
	C1096.817383,519.424805 1093.942627,518.674927 1092.991577,517.290344 
	C1085.551270,506.458649 1078.469238,495.380951 1071.273193,484.381348 
	C1070.219116,482.769958 1069.147827,481.169739 1067.141357,479.836121 
	C1067.141357,492.692047 1067.141357,505.547974 1067.141357,518.741638 
	C1064.311279,519.221619 1061.935791,519.624451 1058.954102,520.130127 
	C1058.708496,517.612915 1058.404663,515.549805 1058.321899,513.477844 
	C1057.750488,499.179657 1057.298340,484.876221 1056.627075,470.582947 
	C1056.484009,467.535309 1055.599121,464.522552 1054.949585,460.900604 
	C1056.362427,460.397125 1058.348999,459.689209 1060.701172,458.878204 
z"/>
<path fill="#165A86" opacity="1.000000" stroke="none" 
	d="
M962.893311,466.116516 
	C971.504395,477.513855 972.017090,489.869629 967.903564,502.461548 
	C964.099487,514.106628 954.830444,520.135681 942.808960,519.996948 
	C931.237549,519.863403 922.268311,513.414978 918.374756,502.094330 
	C915.420654,493.505096 915.231018,484.742584 918.129028,476.098816 
	C924.795532,456.215271 947.802795,450.955627 962.893311,466.116516 
M928.593506,498.613739 
	C929.064941,499.678619 929.437317,500.801788 930.024048,501.798767 
	C933.477112,507.665771 938.265198,511.467926 945.440430,510.855774 
	C951.879028,510.306488 956.929504,505.495056 958.821838,498.399323 
	C960.827026,490.881073 960.226807,483.515015 956.989990,476.449402 
	C953.868530,469.635376 948.531250,466.372528 941.590454,466.759583 
	C935.230835,467.114197 929.490356,471.057556 928.228210,478.224091 
	C927.109924,484.573456 928.184021,491.308960 928.593506,498.613739 
z"/>
<path fill="#165A86" opacity="1.000000" stroke="none" 
	d="
M888.015015,492.673218 
	C884.235229,492.672852 880.950745,492.672852 877.366699,492.672852 
	C877.366699,498.857330 877.366699,504.403748 877.366699,510.527985 
	C887.623474,509.866028 897.499084,509.228699 907.701721,508.570221 
	C907.701721,512.079407 907.701721,515.157410 907.701721,518.624756 
	C894.390198,518.624756 881.162292,518.624756 867.299683,518.624756 
	C867.062805,514.039246 866.723328,509.299866 866.592407,504.554749 
	C866.312561,494.408630 866.170349,484.258698 865.904602,474.112122 
	C865.833557,471.398224 866.335510,468.605469 862.841614,466.954498 
	C861.625916,466.380096 861.499084,463.501190 860.557007,460.744171 
	C876.043152,459.742035 890.858582,458.783295 905.940430,457.807312 
	C906.239624,459.331299 906.479919,460.411072 906.660645,461.500702 
	C907.419983,466.077881 905.965271,468.145142 900.855042,467.781067 
	C894.563721,467.332825 888.204834,467.903961 881.896851,467.593109 
	C877.812683,467.391846 876.652832,468.950806 876.951111,472.772064 
	C877.232178,476.373199 877.011414,480.013519 877.011414,484.388214 
	C885.652405,483.707581 893.684692,483.074890 902.670349,482.367126 
	C902.670349,484.733582 902.560913,486.804688 902.697327,488.859497 
	C902.879333,491.600189 901.864868,492.836426 898.992065,492.707428 
	C895.504761,492.550781 892.004883,492.672363 888.015015,492.673218 
z"/>
<path fill="#165A86" opacity="1.000000" stroke="none" 
	d="
M853.000183,510.954224 
	C854.656982,513.248535 856.110168,515.253357 858.079651,517.970398 
	C853.900574,518.669495 850.404541,519.543152 846.880249,519.678101 
	C845.736084,519.721924 844.181519,518.046265 843.387390,516.793945 
	C837.699158,507.824127 832.158813,498.760559 824.932434,489.327423 
	C823.914124,491.575867 822.133423,493.785858 822.017761,496.079834 
	C821.642517,503.521881 821.877502,510.994690 821.877502,518.834961 
	C818.522705,519.271667 815.634521,519.647705 811.984253,520.122864 
	C811.440002,499.023895 810.910217,478.488922 810.361877,457.232239 
	C813.910400,457.648407 817.034973,457.709686 819.944153,458.532440 
	C820.879333,458.796906 821.748352,461.055328 821.788147,462.426483 
	C821.978455,468.979950 821.873474,475.541992 821.873474,483.648529 
	C828.050171,476.391083 833.166992,470.353943 838.311462,464.340454 
	C845.040649,456.474609 845.050049,456.482666 855.948730,459.929840 
	C854.905396,461.152863 854.104736,462.275757 853.124451,463.210175 
	C847.342041,468.722168 841.629150,474.315765 835.656982,479.616119 
	C832.997742,481.976166 832.670105,483.699829 834.940735,486.619629 
	C841.067749,494.498505 846.867188,502.632172 853.000183,510.954224 
z"/>
<path fill="#165A86" opacity="1.000000" stroke="none" 
	d="
M765.697998,504.182068 
	C774.782227,513.592224 781.994507,513.246094 796.692505,502.997833 
	C802.023743,506.981537 802.090515,507.892456 797.382690,512.411438 
	C782.769714,526.438782 758.429138,520.584900 752.454285,501.251587 
	C748.463135,488.337280 749.282532,475.726593 759.140137,465.285614 
	C768.265076,455.620605 786.440063,454.630432 796.725830,463.067505 
	C798.001160,464.113586 798.916870,466.321686 798.942688,468.007568 
	C798.988098,470.964447 798.436096,473.992645 797.670776,476.867584 
	C797.386169,477.936462 795.836670,479.294128 794.796448,479.354431 
	C793.824219,479.410828 792.229248,478.129852 791.822937,477.082672 
	C788.032593,467.313721 785.225281,465.166382 776.447632,465.769012 
	C769.192078,466.267151 763.787903,471.255951 761.975586,479.422821 
	C760.075989,487.983246 760.301453,496.306671 765.697998,504.182068 
z"/>
<path fill="#777C83" opacity="1.000000" stroke="none" 
	d="
M644.051941,441.338379 
	C644.051941,441.338379 644.112915,441.708649 643.706116,442.079803 
	C643.141541,447.057159 642.876831,451.662567 642.843811,456.269653 
	C642.653015,482.874207 642.531189,509.479218 642.344543,536.083801 
	C642.321350,539.391785 642.053589,542.698059 641.689392,545.832397 
	C641.007507,545.113037 640.535339,544.566467 639.911438,543.711914 
	C639.819641,530.614868 639.879578,517.825684 639.959351,504.564453 
	C639.980408,497.791138 640.054504,491.488464 639.932068,485.189606 
	C639.901306,483.609070 639.525513,481.896088 638.815247,480.493744 
	C636.602051,476.124176 634.241089,471.822357 631.761475,467.597565 
	C630.268494,465.053680 628.361755,462.756042 626.792419,460.252808 
	C623.393677,454.831238 620.092224,449.348663 616.843384,443.555969 
	C617.282349,442.123596 617.628967,441.026245 617.981506,439.960815 
	C617.987488,439.992767 617.924500,439.976837 618.187622,439.931091 
	C618.967773,439.242279 619.484741,438.599243 620.113770,437.640839 
	C625.383057,431.886383 630.540283,426.447266 635.811890,421.188965 
	C637.300293,420.810272 638.674316,420.250793 640.390869,419.775085 
	C641.255310,421.086121 642.159790,422.292572 642.227783,423.544464 
	C642.432190,427.309296 642.168762,431.100159 642.390015,434.863098 
	C642.471985,436.256714 643.393982,437.600983 643.932861,438.967743 
	C643.932861,438.967743 644.110474,439.297760 643.959839,439.900391 
	C643.890076,440.781464 643.971008,441.059906 644.051941,441.338379 
z"/>
<path fill="#92979B" opacity="1.000000" stroke="none" 
	d="
M461.211121,285.452179 
	C465.965057,285.205383 470.718994,284.958588 475.728424,284.371918 
	C476.437683,283.980835 476.891479,283.929626 477.846313,284.262878 
	C479.558228,284.447449 480.769043,284.247528 481.979889,284.047607 
	C482.435577,283.994171 482.891266,283.940765 483.951019,284.291229 
	C488.429352,284.784180 492.303650,284.873291 496.177917,284.962402 
	C497.178619,284.951080 498.179291,284.939758 499.702332,285.214813 
	C501.469025,286.343018 502.713409,287.184845 503.967529,288.434418 
	C503.719543,291.157166 503.461823,293.472137 502.791687,295.872772 
	C494.943390,296.470337 489.751129,300.928802 484.693787,305.789246 
	C481.646576,308.717865 478.265686,311.299286 474.962402,313.692566 
	C473.715332,311.575256 472.538513,309.803467 471.366180,308.028778 
	C466.758362,301.053406 460.013214,295.039062 461.211121,285.452179 
z"/>
<path fill="#C2C6C9" opacity="1.000000" stroke="none" 
	d="
M503.204102,295.787109 
	C503.461823,293.472137 503.719543,291.157166 503.982544,288.094055 
	C503.669708,286.272980 503.351562,285.200104 503.033386,284.127197 
	C507.132233,284.073914 511.231018,283.975372 515.329834,283.974274 
	C558.040405,283.962952 600.750977,283.967316 643.836182,283.967316 
	C646.171509,291.290527 644.556519,298.744080 644.578003,306.532227 
	C643.745911,307.019775 643.307068,307.032898 642.799683,306.580872 
	C642.606079,300.053162 642.481140,293.990631 642.481689,287.675842 
	C641.732422,286.737610 640.857605,286.051575 639.517090,285.329010 
	C598.223206,285.327026 557.394897,285.351562 516.566711,285.433472 
	C514.960022,285.436707 513.354431,285.987549 511.383484,286.148987 
	C508.856445,285.479004 507.083221,285.318420 507.103424,288.489471 
	C507.217133,306.334747 507.252777,324.180511 507.210449,342.482544 
	C507.164459,351.966095 507.223083,360.993286 507.171204,370.476105 
	C507.001526,385.625610 506.942322,400.319489 506.703796,415.250458 
	C506.351868,417.335602 506.179291,419.183594 505.708740,421.025513 
	C505.016968,421.002350 504.623108,420.985260 504.153137,420.606201 
	C504.066406,419.260498 504.055847,418.276703 504.121582,416.910126 
	C504.131256,416.017151 504.064636,415.506989 503.999695,414.528503 
	C503.909027,407.388123 503.816711,400.716095 503.829590,393.582214 
	C503.859802,385.097321 503.784821,377.074249 503.808350,368.588745 
	C503.805511,360.976532 503.704163,353.826782 503.613892,346.291901 
	C503.639923,342.594513 503.654816,339.282257 503.731628,335.515442 
	C503.725861,331.390411 503.658173,327.719849 503.689514,323.585907 
	C503.593719,314.010712 503.398926,304.898895 503.204102,295.787109 
z"/>
<path fill="#FFFFFF" opacity="1.000000" stroke="none" 
	d="
M369.585327,286.084961 
	C370.095184,286.686829 370.217743,287.507477 370.379456,289.048920 
	C370.619049,290.848663 370.819489,291.927612 370.956024,293.449615 
	C370.937103,300.259918 370.982086,306.627136 370.875793,313.436157 
	C370.833466,318.894958 370.942505,323.912048 370.908142,329.370941 
	C370.906128,332.536560 371.047455,335.260345 371.028534,338.370605 
	C371.002869,345.512878 371.137421,352.268707 371.159027,359.343689 
	C371.121307,360.101532 371.196564,360.540161 371.092743,361.265076 
	C371.017609,362.402435 371.121552,363.253510 371.074890,364.536255 
	C370.855988,381.792419 370.787659,398.616882 370.581543,415.706177 
	C370.514618,417.319946 370.585419,418.668854 370.710938,420.265289 
	C370.881805,420.635529 370.997955,420.758270 371.008240,421.288330 
	C370.872437,424.404663 370.842438,427.113678 370.585083,430.250061 
	C370.375580,438.463654 370.393463,446.249847 370.504395,454.494812 
	C370.785553,461.963776 370.973663,468.973969 370.993530,476.383423 
	C370.958099,478.194611 371.090881,479.606537 371.027740,481.422791 
	C370.999634,485.167297 371.167480,488.507477 371.165710,492.258148 
	C371.103271,500.461700 371.210388,508.254761 371.140015,516.449097 
	C371.123840,527.551086 371.285187,538.251770 371.047607,548.923340 
	C370.394348,548.974365 370.140015,549.054626 369.885742,549.134949 
	C369.590454,547.937195 369.037262,546.739502 369.036682,545.541626 
	C368.996521,459.788574 368.999939,374.035553 369.008759,288.282501 
	C369.008820,287.622925 369.132202,286.963318 369.585327,286.084961 
z"/>
<path fill="#92979B" opacity="1.000000" stroke="none" 
	d="
M642.053589,549.131470 
	C640.377625,549.440186 638.701965,550.015625 637.025574,550.018066 
	C606.877502,550.061279 576.728882,549.942261 546.581421,550.074402 
	C535.991638,550.120911 525.405762,550.794434 514.815430,551.083984 
	C510.815369,551.193359 506.807709,551.027039 502.396606,550.598816 
	C501.993164,549.766846 501.996643,549.322388 502.331604,548.702759 
	C503.052155,546.651794 503.740784,544.782288 503.780243,542.899170 
	C503.989502,532.918335 504.035614,522.934082 504.470123,512.947632 
	C505.465332,512.951477 506.128662,512.958740 506.923401,513.420288 
	C507.090851,516.337585 507.106842,518.800964 507.166473,521.263306 
	C507.376587,529.933899 507.601654,538.604187 507.990845,547.625122 
	C509.900116,548.306763 511.637787,548.912903 513.379272,548.923828 
	C523.499512,548.987732 533.620850,548.935547 543.741577,548.878174 
	C566.466553,548.749390 589.191345,548.594421 612.379761,548.547729 
	C622.580750,548.764160 632.318176,548.882935 642.083130,549.034668 
	C642.110535,549.067566 642.053589,549.131470 642.053589,549.131470 
z"/>
<path fill="#C2C6C9" opacity="1.000000" stroke="none" 
	d="
M641.899170,546.005127 
	C642.053589,542.698059 642.321350,539.391785 642.344543,536.083801 
	C642.531189,509.479218 642.653015,482.874207 642.843811,456.269653 
	C642.876831,451.662567 643.141541,447.057159 643.618286,442.245605 
	C644.306580,462.843781 644.744263,483.646393 645.017822,504.451141 
	C645.164856,515.630554 645.096985,526.814331 644.978760,537.994568 
	C644.946472,541.045410 644.380432,544.090698 643.855286,547.723755 
	C643.402344,548.484802 643.172485,548.682739 642.961609,548.902710 
	C642.961609,548.902710 642.493103,548.959656 642.273315,549.045532 
	C642.053589,549.131470 642.110535,549.067566 642.021118,548.663330 
	C641.920837,547.507751 641.909973,546.756409 641.899170,546.005127 
z"/>
<path fill="#B4B8BD" opacity="1.000000" stroke="none" 
	d="
M642.868286,307.046021 
	C643.307068,307.032898 643.745911,307.019775 644.513794,306.996094 
	C644.559387,323.771423 644.189270,340.556427 644.019897,357.343506 
	C643.885620,370.649048 643.998413,383.957062 643.999451,397.263977 
	C643.999878,403.240204 643.995300,409.216400 643.624512,415.616760 
	C642.867676,416.036865 642.479431,416.032837 642.031128,415.686951 
	C641.867737,414.896423 641.764343,414.447754 641.824463,413.557251 
	C641.959045,401.074646 641.930054,389.033936 642.041626,376.543549 
	C642.220520,370.022552 642.258789,363.951263 642.516235,357.549255 
	C642.615234,348.824036 642.495056,340.429504 642.309814,331.765564 
	C642.164124,331.329987 642.083313,331.163788 642.090820,330.575989 
	C642.137939,328.434692 642.096924,326.714996 642.243774,324.643860 
	C642.577271,318.543610 642.722778,312.794800 642.868286,307.046021 
z"/>
<path fill="#868A90" opacity="1.000000" stroke="none" 
	d="
M502.000153,548.877991 
	C501.996643,549.322388 501.993164,549.766846 502.000977,550.544434 
	C494.937897,550.593994 487.864136,550.084656 480.789062,550.065430 
	C448.383667,549.977295 415.977936,550.031982 383.572327,550.019592 
	C379.112701,550.017883 374.653168,549.928162 370.039642,549.507080 
	C370.140015,549.054626 370.394348,548.974365 371.473450,548.804993 
	C393.252899,548.725464 414.207764,548.794128 435.162201,548.728271 
	C457.108795,548.659363 479.054962,548.461243 501.239594,548.479614 
	C501.651978,548.719055 501.826050,548.798523 502.000153,548.877991 
z"/>
<path fill="#C2C6C9" opacity="1.000000" stroke="none" 
	d="
M642.091125,416.028870 
	C642.479431,416.032837 642.867676,416.036865 643.547241,416.026917 
	C643.886353,423.375336 643.934326,430.737793 643.957581,438.533997 
	C643.393982,437.600983 642.471985,436.256714 642.390015,434.863098 
	C642.168762,431.100159 642.432190,427.309296 642.227783,423.544464 
	C642.159790,422.292572 641.255310,421.086121 640.389648,419.487640 
	C640.043152,418.535156 640.040283,417.953918 640.300232,417.196960 
	C641.072449,416.690460 641.581787,416.359650 642.091125,416.028870 
z"/>
<path fill="#A5AAAE" opacity="1.000000" stroke="none" 
	d="
M502.689331,284.067383 
	C503.351562,285.200104 503.669708,286.272980 503.972839,287.686279 
	C502.713409,287.184845 501.469025,286.343018 500.076355,285.184265 
	C500.733826,284.580719 501.539551,284.294128 502.689331,284.067383 
z"/>
<path fill="#C2C6C9" opacity="1.000000" stroke="none" 
	d="
M495.947266,284.587524 
	C492.303650,284.873291 488.429352,284.784180 484.288422,284.369873 
	C487.920044,284.100647 491.818329,284.156647 495.947266,284.587524 
z"/>
<path fill="#C2C6C9" opacity="1.000000" stroke="none" 
	d="
M481.584717,284.008575 
	C480.769043,284.247528 479.558228,284.447449 478.182007,284.341064 
	C479.074310,284.013031 480.131927,283.991272 481.584717,284.008575 
z"/>
<path fill="#6C7076" opacity="1.000000" stroke="none" 
	d="
M643.252258,548.954834 
	C643.172485,548.682739 643.402344,548.484802 643.828735,548.166382 
	C643.851807,548.351501 643.697327,548.679260 643.252258,548.954834 
z"/>
<path fill="#C2C6C9" opacity="1.000000" stroke="none" 
	d="
M644.339294,441.180786 
	C643.971008,441.059906 643.890076,440.781464 643.931763,440.085632 
	C644.245117,440.119934 644.435852,440.571564 644.339294,441.180786 
z"/>
<path fill="#000000" opacity="1.000000" stroke="none" 
	d="
M837.147278,334.647095 
	C845.606506,338.470612 850.688660,344.951782 853.435730,353.104065 
	C857.416687,364.918304 857.810486,377.057129 853.835815,388.907440 
	C849.639099,401.419739 841.246826,409.652069 827.458252,410.629944 
	C820.881836,411.096313 814.244873,410.710114 807.323486,410.710114 
	C807.323486,384.559082 807.323486,358.674774 807.323486,332.207062 
	C817.269348,332.264496 827.195923,330.574432 837.147278,334.647095 
z"/>
<path fill="#000000" opacity="1.000000" stroke="none" 
	d="
M911.825378,389.838501 
	C918.424561,374.778564 924.891663,360.084137 931.358765,345.389679 
	C931.742065,345.414520 932.125366,345.439392 932.508667,345.464233 
	C937.151672,359.573181 941.794678,373.682159 946.688416,388.552917 
	C939.758484,389.391388 933.570068,390.180359 927.371216,390.876282 
	C923.070557,391.359100 918.760986,391.833496 914.442627,392.027252 
	C913.555237,392.067078 912.611206,390.844635 911.825378,389.838501 
z"/>
<path fill="#000000" opacity="1.000000" stroke="none" 
	d="
M727.320129,390.180176 
	C720.122986,390.960663 713.376099,391.687286 705.423035,392.543823 
	C712.660889,376.005798 719.430115,360.538391 726.713257,343.896637 
	C731.799866,359.237732 736.525879,373.491364 741.541260,388.617828 
	C736.505798,389.169434 732.138123,389.647888 727.320129,390.180176 
z"/>
<path fill="#6C7076" opacity="1.000000" stroke="none" 
	d="
M503.590454,324.049316 
	C503.658173,327.719849 503.725861,331.390411 503.431213,335.663666 
	C501.951721,342.601135 497.468353,345.398193 491.048645,346.160278 
	C491.346344,346.842743 491.644043,347.525208 491.941742,348.207672 
	C495.828766,347.697449 499.715759,347.187225 503.602783,346.677002 
	C503.704163,353.826782 503.805511,360.976532 503.418457,368.570374 
	C499.348297,368.491180 495.749878,368.059967 492.190674,367.412781 
	C489.755035,366.969940 487.187683,366.608521 485.004578,365.543640 
	C479.081848,362.654724 473.477722,359.088043 467.478943,356.385559 
	C459.240082,352.673981 450.754364,349.510284 442.304565,345.865936 
	C442.206268,345.452026 442.177826,345.283997 442.426880,344.936096 
	C445.530670,341.868713 448.356934,338.981201 451.183167,336.093689 
	C452.624573,334.829803 454.065979,333.565887 456.157898,332.155182 
	C458.834991,331.590576 460.945526,331.405579 462.872314,330.710999 
	C468.523041,328.673889 474.097656,326.445496 480.312408,327.271545 
	C480.712616,327.324707 481.186981,326.848572 481.621704,326.609314 
	C488.596893,322.769836 495.950806,322.184631 503.590454,324.049316 
z"/>
<path fill="#777C83" opacity="1.000000" stroke="none" 
	d="
M503.689514,323.585907 
	C495.950806,322.184631 488.596893,322.769836 481.621704,326.609314 
	C481.186981,326.848572 480.712616,327.324707 480.312408,327.271545 
	C474.097656,326.445496 468.523041,328.673889 462.872314,330.710999 
	C460.945526,331.405579 458.834991,331.590576 456.451019,332.025208 
	C457.317017,330.595367 458.540405,329.148773 460.251251,327.348450 
	C462.505219,325.345123 464.271759,323.695465 466.325531,321.878937 
	C469.420105,319.153625 472.227386,316.595154 475.034698,314.036713 
	C478.265686,311.299286 481.646576,308.717865 484.693787,305.789246 
	C489.751129,300.928802 494.943390,296.470337 502.791718,295.872772 
	C503.398926,304.898895 503.593719,314.010712 503.689514,323.585907 
z"/>
<path fill="#A5AAAE" opacity="1.000000" stroke="none" 
	d="
M442.149353,345.115967 
	C442.177826,345.283997 442.206268,345.452026 442.068848,346.115936 
	C440.303925,348.100983 438.704865,349.590118 436.745850,351.001160 
	C432.645142,348.828552 428.500336,347.222229 425.251526,344.533386 
	C419.304047,339.610901 413.562683,334.348724 408.313873,328.691467 
	C397.177460,316.688538 383.760437,306.949463 373.801331,293.783966 
	C373.339203,293.173065 371.967865,293.249969 371.019958,293.006561 
	C370.819489,291.927612 370.619049,290.848663 370.509399,289.442810 
	C372.416199,285.294495 375.896545,286.007233 379.107788,285.998749 
	C381.083679,285.993530 383.059601,286.007690 385.192444,286.251495 
	C383.012939,286.883453 380.676514,287.277069 377.260651,287.852539 
	C382.631042,293.191650 387.287445,297.705719 391.807678,302.352173 
	C395.262390,305.903351 398.309021,309.880371 401.955322,313.210083 
	C408.532623,319.216217 415.256165,325.089722 422.231171,330.624786 
	C428.657135,335.724152 435.493683,340.306091 442.149353,345.115967 
z"/>
<path fill="#B4B8BD" opacity="1.000000" stroke="none" 
	d="
M442.426880,344.936096 
	C435.493683,340.306091 428.657135,335.724152 422.231171,330.624786 
	C415.256165,325.089722 408.532623,319.216217 401.955322,313.210083 
	C398.309021,309.880371 395.262390,305.903351 391.807678,302.352173 
	C387.287445,297.705719 382.631042,293.191650 377.260651,287.852539 
	C380.676514,287.277069 383.012939,286.883453 385.654541,286.255280 
	C391.082642,286.020691 396.205566,286.020691 401.328461,286.020691 
	C401.337311,286.327362 401.346191,286.634003 401.355042,286.940674 
	C397.558685,286.940674 393.762329,286.940674 388.531616,286.940674 
	C391.942719,291.340424 394.345367,294.907166 397.216461,298.045380 
	C403.204926,304.590912 409.293701,311.060516 415.633728,317.262360 
	C419.115051,320.667847 423.148163,323.520813 427.013428,326.518494 
	C429.879028,328.740875 432.931152,330.722534 435.799896,332.941071 
	C440.184235,336.331757 444.594727,339.309113 450.776611,336.069824 
	C448.356934,338.981201 445.530670,341.868713 442.426880,344.936096 
z"/>
<path fill="#A5AAAE" opacity="1.000000" stroke="none" 
	d="
M474.962372,313.692505 
	C472.227386,316.595154 469.420105,319.153625 466.141174,321.574799 
	C461.920776,314.576904 458.809662,307.249420 454.231415,300.996063 
	C450.209625,295.502747 447.429779,288.411377 440.004333,286.003296 
	C446.786316,285.783752 453.568268,285.564209 460.780701,285.398438 
	C460.013214,295.039062 466.758362,301.053406 471.366180,308.028778 
	C472.538513,309.803467 473.715332,311.575256 474.962372,313.692505 
z"/>
<path fill="#B4B8BD" opacity="1.000000" stroke="none" 
	d="
M439.546692,285.996460 
	C447.429779,288.411377 450.209625,295.502747 454.231415,300.996063 
	C458.809662,307.249420 461.920776,314.576904 465.853912,321.741669 
	C464.271759,323.695465 462.505219,325.345123 460.410339,327.072388 
	C456.600800,320.482361 453.274719,313.727509 449.590027,307.174347 
	C446.567780,301.799377 442.687531,296.875793 439.983673,291.361755 
	C437.417847,286.129181 433.319305,286.951996 428.996643,287.408569 
	C428.987549,286.935577 428.978455,286.462585 428.969360,285.989594 
	C432.342590,285.989594 435.715820,285.989594 439.546692,285.996460 
z"/>
<path fill="#000000" opacity="1.000000" stroke="none" 
	d="
M928.441895,498.243866 
	C928.184021,491.308960 927.109924,484.573456 928.228210,478.224091 
	C929.490356,471.057556 935.230835,467.114197 941.590454,466.759583 
	C948.531250,466.372528 953.868530,469.635376 956.989990,476.449402 
	C960.226807,483.515015 960.827026,490.881073 958.821838,498.399323 
	C956.929504,505.495056 951.879028,510.306488 945.440430,510.855774 
	C938.265198,511.467926 933.477112,507.665771 930.024048,501.798767 
	C929.437317,500.801788 929.064941,499.678619 928.441895,498.243866 
z"/>
<path fill="#0B2E58" opacity="1.000000" stroke="none" 
	d="
M635.697510,421.008179 
	C630.540283,426.447266 625.383057,431.886383 619.783813,437.725098 
	C618.869385,438.742126 618.396973,439.359497 617.924500,439.976868 
	C617.924500,439.976837 617.987488,439.992767 617.634033,439.959229 
	C612.777466,444.050812 608.274353,448.175964 603.348328,452.223358 
	C599.186157,454.594788 595.446899,457.043945 591.383179,459.705627 
	C589.474121,454.385437 586.746704,454.892273 582.678223,457.926178 
	C579.080750,460.608826 573.468018,459.163086 571.026489,455.954742 
	C566.959106,450.609955 557.786987,450.404877 552.764648,455.063934 
	C551.347473,456.378601 548.583130,456.449768 546.395691,456.655670 
	C544.807068,456.805206 543.038940,456.524078 541.544373,455.939880 
	C535.194885,453.457947 526.922546,458.204773 521.934387,450.717438 
	C515.565308,452.630768 512.170776,446.868866 507.141479,444.570984 
	C506.973358,436.727905 506.919952,429.342865 507.098846,421.624969 
	C509.015961,420.853210 510.700226,420.033722 512.385681,420.031189 
	C551.932129,419.971497 591.478638,419.988739 631.025085,420.054413 
	C632.583069,420.057007 634.140076,420.676270 635.697510,421.008179 
z"/>
<path fill="#92979B" opacity="1.000000" stroke="none" 
	d="
M639.939453,505.036530 
	C639.879578,517.825684 639.819641,530.614868 639.829956,544.015137 
	C639.267700,545.080933 638.635254,545.535645 637.986023,545.609741 
	C636.767761,541.249390 635.801453,537.126221 630.103821,537.673096 
	C629.158752,537.763794 628.024719,536.717285 627.097595,536.034058 
	C617.438782,528.916016 607.747620,521.839783 598.181091,514.599243 
	C590.438538,508.739136 582.695190,502.858734 575.273621,496.605743 
	C572.092041,493.925110 569.550476,490.712036 564.787231,492.129333 
	C564.928955,491.546600 565.083008,491.344635 565.235474,491.167480 
	C565.233887,491.192291 565.212830,491.180298 565.361450,490.899475 
	C565.897522,490.467010 566.285034,490.315338 566.903625,490.080414 
	C567.437927,489.467651 567.741089,488.938171 568.264099,488.170837 
	C569.331848,487.291321 570.179688,486.649719 571.364136,486.149567 
	C574.967590,487.836975 578.588806,488.907959 581.428162,491.026733 
	C587.521179,495.573425 593.058289,500.863129 599.131104,505.439728 
	C602.091064,507.670349 605.660828,509.176270 609.112305,510.637634 
	C611.105225,511.481415 613.396790,511.715546 615.583435,511.975525 
	C617.263916,512.175354 619.338684,512.549927 620.580017,511.782471 
	C621.480652,511.225677 621.919434,508.732605 621.508362,507.438202 
	C619.019470,499.601837 616.606445,491.702362 613.424805,484.136475 
	C610.477478,477.127533 606.450928,470.579041 603.238953,463.670044 
	C602.456482,461.986847 602.223694,459.207916 603.104248,457.768433 
	C604.885559,454.856293 607.602600,452.516510 609.938110,450.313385 
	C608.397522,457.677521 613.760010,461.880524 616.618713,467.067169 
	C620.653015,474.386658 624.684570,481.717407 629.034424,488.849976 
	C632.418335,494.398651 636.286499,499.651947 639.939453,505.036530 
z"/>
<path fill="#A5AAAE" opacity="1.000000" stroke="none" 
	d="
M609.933838,449.940735 
	C607.602600,452.516510 604.885559,454.856293 603.104248,457.768433 
	C602.223694,459.207916 602.456482,461.986847 603.238953,463.670044 
	C606.450928,470.579041 610.477478,477.127533 613.424805,484.136475 
	C616.606445,491.702362 619.019470,499.601837 621.508362,507.438202 
	C621.919434,508.732605 621.480652,511.225677 620.580017,511.782471 
	C619.338684,512.549927 617.263916,512.175354 615.583435,511.975525 
	C613.396790,511.715546 611.105225,511.481415 609.112305,510.637634 
	C605.660828,509.176270 602.091064,507.670349 599.131104,505.439728 
	C593.058289,500.863129 587.521179,495.573425 581.428162,491.026733 
	C578.588806,488.907959 574.967590,487.836975 571.520203,485.857239 
	C582.150146,474.382660 592.960693,463.341888 603.771240,452.301086 
	C608.274353,448.175964 612.777466,444.050812 617.628052,439.927307 
	C617.628967,441.026245 617.282349,442.123596 616.531494,443.631561 
	C614.062744,446.008392 611.998291,447.974579 609.933838,449.940735 
z"/>
<path fill="#868A90" opacity="1.000000" stroke="none" 
	d="
M609.938110,450.313416 
	C611.998291,447.974579 614.062744,446.008392 616.439087,443.966614 
	C620.092224,449.348663 623.393677,454.831238 626.792419,460.252808 
	C628.361755,462.756042 630.268494,465.053680 631.761475,467.597565 
	C634.241089,471.822357 636.602051,476.124176 638.815247,480.493744 
	C639.525513,481.896088 639.901306,483.609070 639.932068,485.189606 
	C640.054504,491.488464 639.980408,497.791138 639.959351,504.564453 
	C636.286499,499.651947 632.418335,494.398651 629.034424,488.849976 
	C624.684570,481.717407 620.653015,474.386658 616.618713,467.067169 
	C613.760010,461.880524 608.397522,457.677521 609.938110,450.313416 
z"/>
<path fill="#A5AAAE" opacity="1.000000" stroke="none" 
	d="
M635.811890,421.188995 
	C634.140076,420.676270 632.583069,420.057007 631.025085,420.054413 
	C591.478638,419.988739 551.932129,419.971497 512.385681,420.031189 
	C510.700226,420.033722 509.015961,420.853210 506.923431,421.502869 
	C506.307953,421.514740 506.138275,421.287384 506.006683,421.031616 
	C506.179291,419.183594 506.351868,417.335602 506.951172,415.569275 
	C510.056519,416.110382 512.734619,416.966187 515.413879,416.969818 
	C555.146484,417.023956 594.879272,416.959290 634.612000,416.951813 
	C636.420471,416.951477 638.228882,417.226105 640.037354,417.372681 
	C640.040283,417.953918 640.043152,418.535156 640.047241,419.403839 
	C638.674316,420.250793 637.300293,420.810272 635.811890,421.188995 
z"/>
<path fill="#5B5F66" opacity="1.000000" stroke="none" 
	d="
M638.002747,545.990356 
	C638.635254,545.535645 639.267700,545.080933 639.981689,544.322998 
	C640.535339,544.566467 641.007507,545.113037 641.689453,545.832397 
	C641.909973,546.756409 641.920837,547.507751 641.993652,548.630371 
	C632.318176,548.882935 622.580750,548.764160 612.391541,548.278992 
	C611.933228,547.364014 611.926636,546.815430 612.341553,546.196899 
	C614.176880,546.079834 615.590698,546.032776 617.472778,545.996948 
	C624.628174,546.002319 631.315491,545.996338 638.002747,545.990356 
z"/>
<path fill="#A5AAAE" opacity="1.000000" stroke="none" 
	d="
M618.187622,439.931091 
	C618.396973,439.359497 618.869385,438.742126 619.671753,438.040466 
	C619.484741,438.599243 618.967773,439.242279 618.187622,439.931091 
z"/>
<path fill="#041D3C" opacity="1.000000" stroke="none" 
	d="
M640.300232,417.196960 
	C638.228882,417.226105 636.420471,416.951477 634.612000,416.951813 
	C594.879272,416.959290 555.146484,417.023956 515.413879,416.969818 
	C512.734619,416.966187 510.056519,416.110382 507.130493,415.332153 
	C506.942322,400.319489 507.001526,385.625610 507.535431,370.481445 
	C512.723694,372.680817 517.554443,374.305298 522.982971,372.139374 
	C523.621094,371.884735 524.575195,372.564972 525.387756,372.582428 
	C533.106628,372.748138 540.882690,373.480286 548.526794,372.783051 
	C553.829834,372.299316 558.564026,371.871124 563.275574,374.933350 
	C564.694458,375.855591 567.075256,375.648529 568.958679,375.441803 
	C575.295837,374.746185 581.607483,373.817657 588.584656,372.891205 
	C587.409607,377.450531 589.564209,379.159515 593.038330,379.137085 
	C595.694580,379.119965 598.346252,378.405151 601.195801,378.136139 
	C601.637512,378.478638 601.838379,378.722656 602.017212,379.360291 
	C603.024780,380.480988 604.009399,381.244995 605.297180,382.158630 
	C606.546143,382.959106 607.610596,383.488556 608.419128,384.279633 
	C616.310364,392.000549 624.034973,399.897278 632.087036,407.445190 
	C634.875732,410.059326 638.447021,411.838531 641.660889,413.999115 
	C641.764343,414.447754 641.867737,414.896423 642.031128,415.686951 
	C641.581787,416.359650 641.072449,416.690460 640.300232,417.196960 
z"/>
<path fill="#276C9F" opacity="1.000000" stroke="none" 
	d="
M642.799683,306.580872 
	C642.722778,312.794800 642.577271,318.543610 641.800903,324.645447 
	C633.222473,325.393250 625.275635,325.804779 617.326965,326.178925 
	C604.416138,326.786621 591.504578,327.378571 578.592346,327.954956 
	C576.343506,328.055359 574.087402,327.995911 571.838928,328.101135 
	C569.014099,328.233337 566.120178,328.939178 563.390198,328.521423 
	C560.072998,328.013824 557.116150,327.436432 554.775391,330.626221 
	C541.446106,317.272949 528.356873,304.133575 515.324646,290.937988 
	C513.960266,289.556549 512.932312,287.842804 511.748291,286.283203 
	C513.354431,285.987549 514.960022,285.436707 516.566711,285.433472 
	C557.394897,285.351562 598.223206,285.327026 639.598267,285.615540 
	C640.882141,286.601776 641.619141,287.264923 642.356201,287.928070 
	C642.481140,293.990631 642.606079,300.053162 642.799683,306.580872 
z"/>
<path fill="#4F5257" opacity="1.000000" stroke="none" 
	d="
M503.724365,394.044006 
	C503.816711,400.716095 503.909027,407.388123 503.765503,414.541626 
	C503.529633,415.023102 503.060699,415.009918 502.585938,415.020691 
	C485.077148,415.015289 468.043091,414.999054 451.005127,414.559875 
	C450.074005,409.816864 449.520447,405.372559 448.134735,401.204956 
	C445.875702,394.410706 443.280945,387.705750 440.397552,381.152466 
	C439.254333,378.554199 437.352142,375.940643 435.104492,374.255981 
	C431.334076,371.429932 427.010315,369.342224 422.908264,366.685394 
	C422.891602,366.254669 422.886047,366.082336 423.163513,365.761658 
	C424.320496,364.434082 425.194397,363.254791 426.350647,361.903320 
	C428.775909,359.494965 430.918793,357.258850 433.263153,354.803467 
	C434.314301,354.057831 435.163971,353.531433 436.373016,353.030457 
	C442.502197,355.431793 448.328217,357.681519 454.026489,360.218201 
	C460.041107,362.895721 466.723267,364.896149 469.261841,372.026001 
	C470.643555,375.906738 471.722717,379.894745 472.960083,383.827484 
	C474.377502,388.332489 477.789551,390.635254 482.181030,390.902588 
	C486.788361,391.183105 488.760101,394.040955 490.690948,397.509674 
	C491.611572,399.163452 493.734558,401.922516 494.295197,401.693176 
	C496.650665,400.729584 498.679626,398.897278 500.710571,397.239014 
	C501.835052,396.320831 502.727386,395.118347 503.724365,394.044006 
z"/>
<path fill="#06264B" opacity="1.000000" stroke="none" 
	d="
M601.000000,378.000702 
	C598.346252,378.405151 595.694580,379.119965 593.038330,379.137085 
	C589.564209,379.159515 587.409607,377.450531 588.584656,372.891205 
	C581.607483,373.817657 575.295837,374.746185 568.958679,375.441803 
	C567.075256,375.648529 564.694458,375.855591 563.275574,374.933350 
	C558.564026,371.871124 553.829834,372.299316 548.526794,372.783051 
	C540.882690,373.480286 533.106628,372.748138 525.387756,372.582428 
	C524.575195,372.564972 523.621094,371.884735 522.982971,372.139374 
	C517.554443,374.305298 512.723694,372.680817 507.645935,370.025787 
	C507.223083,360.993286 507.164459,351.966095 507.577087,342.486084 
	C512.362549,343.759705 516.620300,346.040375 521.146057,342.352753 
	C521.647827,341.943878 523.046387,342.822266 523.996643,342.738068 
	C525.913452,342.568176 528.091187,342.634399 529.652588,341.727417 
	C532.892700,339.845337 535.723267,339.480835 538.866760,341.800354 
	C539.859741,342.533020 541.426697,343.079376 542.596069,342.887817 
	C551.900696,341.363831 558.450378,347.395813 565.639465,351.360901 
	C568.945068,353.184113 571.373962,353.536346 574.350464,350.937866 
	C578.112183,354.037811 581.543152,357.032471 585.033325,360.364990 
	C590.048279,365.498199 595.004089,370.293518 600.012329,375.395142 
	C600.376465,376.467834 600.688232,377.234283 601.000000,378.000702 
z"/>
<path fill="#59B3B5" opacity="1.000000" stroke="none" 
	d="
M371.114075,420.881012 
	C370.997955,420.758270 370.881805,420.635529 371.004211,420.105530 
	C371.506989,418.890930 371.771240,418.083527 372.497681,417.261902 
	C400.437897,417.384705 427.915863,417.607391 455.393982,417.626038 
	C471.369507,417.636871 487.345276,417.320404 503.500275,417.195557 
	C503.679626,417.239868 504.045258,417.292938 504.045258,417.292938 
	C504.055847,418.276703 504.066406,419.260498 504.129395,421.023102 
	C504.368256,431.923279 504.554688,442.044647 504.470276,452.209106 
	C503.794556,452.846313 503.389709,453.440460 502.770508,453.717621 
	C502.379364,451.587097 502.202606,449.773529 502.028625,447.495972 
	C501.767700,442.078278 501.576782,437.119171 501.209534,432.173157 
	C501.026672,429.710022 499.719269,429.054962 497.106140,429.382843 
	C490.759979,430.179138 484.355438,430.518585 477.971375,431.002258 
	C468.902435,431.689362 459.827606,432.300720 450.761902,433.027008 
	C447.143494,433.316925 443.552490,433.994385 439.932098,434.204315 
	C429.873627,434.787506 419.798279,435.713196 409.745026,435.550171 
	C401.851776,435.422150 393.981537,433.873962 385.800323,432.800293 
	C383.796570,430.908722 382.245026,428.982849 380.355713,427.482269 
	C377.395081,425.130890 374.206238,423.066772 371.114075,420.881012 
z"/>
<path fill="#0B2E58" opacity="1.000000" stroke="none" 
	d="
M574.019714,350.832550 
	C571.373962,353.536346 568.945068,353.184113 565.639465,351.360901 
	C558.450378,347.395813 551.900696,341.363831 542.596069,342.887817 
	C541.426697,343.079376 539.859741,342.533020 538.866760,341.800354 
	C535.723267,339.480835 532.892700,339.845337 529.652588,341.727417 
	C528.091187,342.634399 525.913452,342.568176 523.996643,342.738068 
	C523.046387,342.822266 521.647827,341.943878 521.146057,342.352753 
	C516.620300,346.040375 512.362549,343.759705 507.681702,342.029694 
	C507.252777,324.180511 507.217133,306.334747 507.103424,288.489471 
	C507.083221,285.318420 508.856445,285.479004 511.383484,286.148987 
	C512.932312,287.842804 513.960266,289.556549 515.324646,290.937988 
	C528.356873,304.133575 541.446106,317.272949 554.907532,330.942383 
	C557.139832,333.001404 558.983643,334.546478 561.018799,336.368713 
	C565.480103,341.374756 569.749878,346.103668 574.019714,350.832550 
z"/>
<path fill="#5B5F66" opacity="1.000000" stroke="none" 
	d="
M503.829590,393.582214 
	C502.727386,395.118347 501.835052,396.320831 500.710571,397.239014 
	C498.679626,398.897278 496.650665,400.729584 494.295197,401.693176 
	C493.734558,401.922516 491.611572,399.163452 490.690948,397.509674 
	C488.760101,394.040955 486.788361,391.183105 482.181030,390.902588 
	C477.789551,390.635254 474.377502,388.332489 472.960083,383.827484 
	C471.722717,379.894745 470.643555,375.906738 469.261841,372.026001 
	C466.723267,364.896149 460.041107,362.895721 454.026489,360.218201 
	C448.328217,357.681519 442.502197,355.431793 436.479004,352.773438 
	C436.519043,352.020447 436.812439,351.549835 437.105835,351.079254 
	C438.704865,349.590118 440.303925,348.100983 442.138702,346.361847 
	C450.754364,349.510284 459.240082,352.673981 467.478943,356.385559 
	C473.477722,359.088043 479.081848,362.654724 485.004578,365.543640 
	C487.187683,366.608521 489.755035,366.969940 492.190674,367.412781 
	C495.749878,368.059967 499.348297,368.491180 503.319946,369.032837 
	C503.784821,377.074249 503.859802,385.097321 503.829590,393.582214 
z"/>
<path fill="#B4B8BD" opacity="1.000000" stroke="none" 
	d="
M504.741150,452.165985 
	C504.554688,442.044647 504.368256,431.923279 504.205566,421.385071 
	C504.623108,420.985260 505.016968,421.002350 505.708740,421.025513 
	C506.138275,421.287384 506.307953,421.514740 506.691162,421.835693 
	C506.919952,429.342865 506.973358,436.727905 507.044006,445.028107 
	C507.127472,458.638977 507.193634,471.334686 507.157562,484.487122 
	C506.967560,494.284515 506.879822,503.625214 506.792053,512.965942 
	C506.128662,512.958740 505.465332,512.951477 504.411682,512.486755 
	C503.902527,506.722900 503.783691,501.416565 503.799927,495.676147 
	C503.897064,493.142792 503.859131,491.043518 503.923767,488.494781 
	C503.980438,483.699127 503.934540,479.352905 503.973480,474.545807 
	C504.010376,469.060883 503.962433,464.036865 503.984863,458.602661 
	C504.064606,457.083740 504.074005,455.974945 504.285767,454.655273 
	C504.572510,453.684937 504.656830,452.925446 504.741150,452.165985 
z"/>
<path fill="#777C83" opacity="1.000000" stroke="none" 
	d="
M503.613892,346.291870 
	C499.715759,347.187225 495.828766,347.697449 491.941742,348.207672 
	C491.644043,347.525208 491.346344,346.842743 491.048645,346.160278 
	C497.468353,345.398193 501.951721,342.601135 503.369263,336.118164 
	C503.654816,339.282257 503.639923,342.594513 503.613892,346.291870 
z"/>
<path fill="#868A90" opacity="1.000000" stroke="none" 
	d="
M642.481689,287.675842 
	C641.619141,287.264923 640.882141,286.601776 640.063965,285.652069 
	C640.857605,286.051575 641.732422,286.737610 642.481689,287.675842 
z"/>
<path fill="#777C83" opacity="1.000000" stroke="none" 
	d="
M504.121582,416.910126 
	C504.045258,417.292938 503.679626,417.239868 503.475098,416.835602 
	C503.200623,415.957520 503.130676,415.483734 503.060730,415.009918 
	C503.060699,415.009918 503.529633,415.023102 503.763824,415.009949 
	C504.064636,415.506989 504.131256,416.017151 504.121582,416.910126 
z"/>
<path fill="#0D4740" opacity="1.000000" stroke="none" 
	d="
M501.001312,548.319580 
	C479.054962,548.461243 457.108795,548.659363 435.162201,548.728271 
	C414.207764,548.794128 393.252899,548.725464 371.872375,548.834106 
	C371.285187,538.251770 371.123840,527.551086 371.480103,516.447388 
	C378.076904,516.980957 384.418518,515.254089 390.328094,518.666504 
	C392.999878,520.209290 396.709229,520.963440 399.783813,520.617432 
	C410.330139,519.430725 420.763550,517.186707 431.319031,516.153015 
	C438.729950,515.427307 446.295319,515.638977 453.742615,516.149048 
	C458.731232,516.490784 464.137115,516.500305 468.097778,520.734253 
	C468.394196,521.051147 470.058960,520.088013 471.407501,519.783569 
	C472.160767,519.893372 472.594147,519.939636 473.158844,520.298218 
	C478.599792,525.773682 483.958008,530.888062 489.203217,536.115784 
	C493.210052,540.109314 497.073883,544.246338 501.001312,548.319580 
z"/>
<path fill="#0F5149" opacity="1.000000" stroke="none" 
	d="
M471.087585,519.719971 
	C470.058960,520.088013 468.394196,521.051147 468.097778,520.734253 
	C464.137115,516.500305 458.731232,516.490784 453.742615,516.149048 
	C446.295319,515.638977 438.729950,515.427307 431.319031,516.153015 
	C420.763550,517.186707 410.330139,519.430725 399.783813,520.617432 
	C396.709229,520.963440 392.999878,520.209290 390.328094,518.666504 
	C384.418518,515.254089 378.076904,516.980957 371.657623,516.046082 
	C371.210388,508.254761 371.103271,500.461700 371.337830,491.983246 
	C371.993439,490.104248 372.307343,488.910583 372.787506,487.084839 
	C374.914551,490.965637 375.942963,495.587341 378.676331,497.073669 
	C381.532776,498.626953 386.037964,496.928558 389.807739,497.062897 
	C401.359863,497.474579 412.708130,500.046326 424.509460,498.259735 
	C433.257629,496.935364 442.665436,495.208740 451.014252,500.892792 
	C451.480316,501.210083 452.316193,500.984192 453.236420,501.222656 
	C454.567810,502.428040 455.702789,503.364990 456.707458,504.425415 
	C461.520172,509.505280 466.297607,514.618530 471.087585,519.719971 
z"/>
<path fill="#106C5B" opacity="1.000000" stroke="none" 
	d="
M371.008240,421.288330 
	C374.206238,423.066772 377.395081,425.130890 380.355713,427.482269 
	C382.245026,428.982849 383.796570,430.908722 385.922180,433.108398 
	C391.898102,439.049377 397.451416,444.525909 403.149170,450.302307 
	C407.104614,454.131073 410.915558,457.659973 414.844727,461.510162 
	C419.228485,466.238129 423.494049,470.644836 427.356323,475.073181 
	C422.205872,475.119049 417.457855,475.096283 412.711761,475.181732 
	C408.675934,475.254395 404.641754,475.435638 400.608002,475.598358 
	C396.212585,475.775604 391.787598,476.396027 387.432892,476.065918 
	C383.247894,475.748627 379.151367,474.365082 374.973999,473.722809 
	C374.440704,473.640808 373.654419,475.203888 372.757050,476.010498 
	C372.073120,476.005463 371.617462,475.994812 371.161804,475.984192 
	C370.973663,468.973969 370.785553,461.963776 370.838684,454.335022 
	C370.990814,445.751892 370.901642,437.787262 370.812469,429.822662 
	C370.842438,427.113678 370.872437,424.404663 371.008240,421.288330 
z"/>
<path fill="#0D5C4F" opacity="1.000000" stroke="none" 
	d="
M372.985352,476.004883 
	C373.654419,475.203888 374.440704,473.640808 374.973999,473.722809 
	C379.151367,474.365082 383.247894,475.748627 387.432892,476.065918 
	C391.787598,476.396027 396.212585,475.775604 400.608002,475.598358 
	C404.641754,475.435638 408.675934,475.254395 412.711761,475.181732 
	C417.457855,475.096283 422.205872,475.119049 427.561249,475.292328 
	C428.781860,475.974152 429.394287,476.458527 430.153442,477.248566 
	C433.501556,480.438599 436.702911,483.322968 439.979340,486.538452 
	C444.362915,491.583405 448.671417,496.297272 452.979919,501.011108 
	C452.316193,500.984192 451.480316,501.210083 451.014252,500.892792 
	C442.665436,495.208740 433.257629,496.935364 424.509460,498.259735 
	C412.708130,500.046326 401.359863,497.474579 389.807739,497.062897 
	C386.037964,496.928558 381.532776,498.626953 378.676331,497.073669 
	C375.942963,495.587341 374.914551,490.965637 372.787506,487.084839 
	C372.307343,488.910583 371.993439,490.104248 371.507385,491.572784 
	C371.167480,488.507477 370.999634,485.167297 371.314819,481.320618 
	C372.193665,479.211029 372.589508,477.607971 372.985352,476.004883 
z"/>
<path fill="#6C7076" opacity="1.000000" stroke="none" 
	d="
M422.880463,365.909973 
	C422.886047,366.082336 422.891602,366.254669 422.628754,366.859436 
	C418.185150,371.483917 414.009949,375.675934 409.582123,379.988464 
	C408.840820,380.383972 408.352173,380.658936 407.505157,380.921478 
	C394.767548,374.700836 382.392822,368.486664 375.275238,355.423676 
	C373.400055,357.110382 372.335999,358.067444 371.271973,359.024506 
	C371.137421,352.268707 371.002869,345.512878 371.222809,338.136597 
	C371.793823,335.431030 372.010315,333.345947 372.395081,329.639954 
	C374.794891,330.771942 376.931183,331.266205 378.367218,332.546112 
	C384.487366,338.000854 390.255829,343.854462 396.443817,349.227142 
	C400.098389,352.400177 404.779694,354.473694 408.129883,357.893372 
	C412.348969,362.200043 416.775848,365.406677 422.880463,365.909973 
z"/>
<path fill="#5B5F66" opacity="1.000000" stroke="none" 
	d="
M371.159027,359.343689 
	C372.335999,358.067444 373.400055,357.110382 375.275238,355.423676 
	C382.392822,368.486664 394.767548,374.700836 407.382019,381.228516 
	C406.615875,382.655853 405.660614,383.809937 404.605743,384.864410 
	C395.915924,393.551086 387.275238,402.289124 378.449554,410.835876 
	C376.620972,412.606659 374.084412,413.646362 371.581665,415.117279 
	C371.099274,415.288177 370.909271,415.364777 370.719299,415.441376 
	C370.787659,398.616882 370.855988,381.792419 371.327576,364.472534 
	C371.577820,362.977692 371.424805,361.978271 371.271790,360.978821 
	C371.196564,360.540161 371.121307,360.101532 371.159027,359.343689 
z"/>
<path fill="#868A90" opacity="1.000000" stroke="none" 
	d="
M433.061676,355.022736 
	C430.918793,357.258850 428.775909,359.494965 426.060242,361.713074 
	C422.962921,359.614014 420.491425,357.464172 417.902496,355.466492 
	C412.816406,351.541840 407.439087,347.962982 402.590546,343.768982 
	C394.130432,336.450989 386.068024,328.674286 377.645172,321.311493 
	C375.075409,319.065094 372.617859,320.363647 372.050171,323.734589 
	C371.757416,325.472839 371.386871,327.198029 371.051514,328.929108 
	C370.942505,323.912048 370.833466,318.894958 371.096130,313.198517 
	C371.633179,312.055023 371.781860,311.584106 371.966949,311.127960 
	C372.641022,309.466675 373.327301,307.810333 374.008972,306.152130 
	C375.727692,307.195953 377.475677,308.195770 379.147919,309.309418 
	C379.674622,309.660217 379.945953,310.371002 380.422455,310.824158 
	C393.005432,322.789276 405.378601,334.989960 418.321014,346.553375 
	C422.456085,350.247864 428.105286,352.247589 433.061676,355.022736 
z"/>
<path fill="#777C83" opacity="1.000000" stroke="none" 
	d="
M370.908142,329.370941 
	C371.386871,327.198029 371.757416,325.472839 372.050171,323.734589 
	C372.617859,320.363647 375.075409,319.065094 377.645172,321.311493 
	C386.068024,328.674286 394.130432,336.450989 402.590546,343.768982 
	C407.439087,347.962982 412.816406,351.541840 417.902496,355.466492 
	C420.491425,357.464172 422.962921,359.614014 425.777893,361.885315 
	C425.194397,363.254791 424.320496,364.434082 423.163513,365.761658 
	C416.775848,365.406677 412.348969,362.200043 408.129883,357.893372 
	C404.779694,354.473694 400.098389,352.400177 396.443817,349.227142 
	C390.255829,343.854462 384.487366,338.000854 378.367218,332.546112 
	C376.931183,331.266205 374.794891,330.771942 372.395081,329.639954 
	C372.010315,333.345947 371.793823,335.431030 371.383057,337.750122 
	C371.047455,335.260345 370.906128,332.536560 370.908142,329.370941 
z"/>
<path fill="#92979B" opacity="1.000000" stroke="none" 
	d="
M433.263153,354.803467 
	C428.105286,352.247589 422.456085,350.247864 418.321014,346.553375 
	C405.378601,334.989960 393.005432,322.789276 380.422455,310.824158 
	C379.945953,310.371002 379.674622,309.660217 379.147919,309.309418 
	C377.475677,308.195770 375.727692,307.195953 374.008972,306.152130 
	C373.327301,307.810333 372.641022,309.466675 371.966949,311.127960 
	C371.781860,311.584106 371.633179,312.055023 371.247437,312.756775 
	C370.982086,306.627136 370.937103,300.259918 370.956024,293.449615 
	C371.967865,293.249969 373.339203,293.173065 373.801331,293.783966 
	C383.760437,306.949463 397.177460,316.688538 408.313873,328.691467 
	C413.562683,334.348724 419.304047,339.610901 425.251526,344.533386 
	C428.500336,347.222229 432.645142,348.828552 436.745850,351.001160 
	C436.812439,351.549835 436.519043,352.020447 436.119629,352.748047 
	C435.163971,353.531433 434.314301,354.057831 433.263153,354.803467 
z"/>
<path fill="#59B3B5" opacity="1.000000" stroke="none" 
	d="
M370.585083,430.250061 
	C370.901642,437.787262 370.990814,445.751892 370.745667,453.876282 
	C370.393463,446.249847 370.375580,438.463654 370.585083,430.250061 
z"/>
<path fill="#0F5149" opacity="1.000000" stroke="none" 
	d="
M372.757080,476.010498 
	C372.589508,477.607971 372.193665,479.211029 371.510742,480.916290 
	C371.090881,479.606537 370.958099,478.194611 370.993530,476.383423 
	C371.617462,475.994812 372.073120,476.005463 372.757080,476.010498 
z"/>
<path fill="#6C7076" opacity="1.000000" stroke="none" 
	d="
M371.092712,361.265076 
	C371.424805,361.978271 371.577820,362.977692 371.478149,364.040894 
	C371.121552,363.253510 371.017609,362.402435 371.092712,361.265076 
z"/>
<path fill="#C2C6C9" opacity="1.000000" stroke="none" 
	d="
M370.581543,415.706177 
	C370.909271,415.364777 371.099274,415.288177 371.527313,415.495056 
	C371.855408,416.277771 371.945435,416.776947 372.035492,417.276123 
	C371.771240,418.083527 371.506989,418.890930 370.949463,419.858032 
	C370.585419,418.668854 370.514618,417.319946 370.581543,415.706177 
z"/>
<path fill="#041D3C" opacity="1.000000" stroke="none" 
	d="
M506.923431,513.420288 
	C506.879822,503.625214 506.967560,494.284515 507.504028,484.502960 
	C508.975464,484.553558 510.286713,484.794281 510.970123,485.580627 
	C513.679016,488.697266 516.247742,490.096771 519.509949,486.210968 
	C520.080566,485.531281 521.619995,485.376862 522.682373,485.444702 
	C529.797180,485.898712 536.925232,486.291656 544.003967,487.099213 
	C547.368347,487.483002 552.086182,487.699554 553.607300,489.833527 
	C555.954224,493.125916 558.296082,493.811005 561.462891,493.938873 
	C560.368347,495.460541 559.471130,496.715393 558.293518,498.098175 
	C554.928772,501.414032 551.844360,504.601929 548.482666,507.966553 
	C543.388245,513.022949 538.571045,517.902710 533.443359,522.905151 
	C529.489868,526.612793 525.888062,530.240906 522.193481,533.772034 
	C517.441589,538.313660 512.615295,542.777344 507.820984,547.274597 
	C507.601654,538.604187 507.376587,529.933899 507.166473,521.263306 
	C507.106842,518.800964 507.090851,516.337585 506.923431,513.420288 
z"/>
<path fill="#4F5257" opacity="1.000000" stroke="none" 
	d="
M507.990845,547.625122 
	C512.615295,542.777344 517.441589,538.313660 522.193481,533.772034 
	C525.888062,530.240906 529.489868,526.612793 533.682434,523.127930 
	C535.818726,522.323425 537.408508,521.424072 538.991577,520.513062 
	C540.991943,519.362000 542.986755,518.201233 543.805115,517.727295 
	C547.391907,521.329102 549.689758,524.749817 552.898743,526.496094 
	C555.333740,527.821228 556.587524,528.960815 557.466614,531.539978 
	C562.113831,545.174500 571.233215,550.044922 584.464539,546.007996 
	C590.284851,546.013000 595.637390,546.017334 601.447571,546.037109 
	C605.243530,546.123962 608.581787,546.195435 611.920044,546.266846 
	C611.926636,546.815430 611.933228,547.364014 611.928040,548.181396 
	C589.191345,548.594421 566.466553,548.749390 543.741577,548.878174 
	C533.620850,548.935547 523.499512,548.987732 513.379272,548.923828 
	C511.637787,548.912903 509.900116,548.306763 507.990845,547.625122 
z"/>
<path fill="#106C5B" opacity="1.000000" stroke="none" 
	d="
M501.239594,548.479614 
	C497.073883,544.246338 493.210052,540.109314 489.203217,536.115784 
	C483.958008,530.888062 478.599792,525.773682 473.473785,520.054932 
	C474.460449,519.332825 475.300842,518.921753 476.060822,519.037720 
	C483.169586,520.122009 490.257629,520.393494 497.455292,519.727478 
	C500.641022,519.432678 502.021606,518.440674 502.013641,515.344421 
	C502.001312,510.532410 501.901093,505.714233 502.120209,500.911560 
	C502.194122,499.290985 503.125397,497.709564 503.664825,496.110229 
	C503.783691,501.416565 503.902527,506.722900 504.079834,512.490112 
	C504.035614,522.934082 503.989502,532.918335 503.780243,542.899170 
	C503.740784,544.782288 503.052155,546.651794 502.331604,548.702759 
	C501.826050,548.798523 501.651978,548.719055 501.239594,548.479614 
z"/>
<path fill="#0B2E58" opacity="1.000000" stroke="none" 
	d="
M601.195801,378.136139 
	C600.688232,377.234283 600.376465,376.467834 600.430603,375.373383 
	C605.647705,375.662903 610.490967,376.357605 615.353882,376.861877 
	C617.444946,377.078735 619.577026,376.894409 621.690430,376.902985 
	C628.427307,376.930359 635.164185,376.962769 641.901062,376.993225 
	C641.930054,389.033936 641.959045,401.074646 641.824463,413.557251 
	C638.447021,411.838531 634.875732,410.059326 632.087036,407.445190 
	C624.034973,399.897278 616.310364,392.000549 608.419128,384.279633 
	C607.610596,383.488556 606.546143,382.959106 605.149597,381.887573 
	C603.797302,380.645813 602.895752,379.824738 601.994263,379.003662 
	C601.838379,378.722656 601.637512,378.478638 601.195801,378.136139 
z"/>
<path fill="#0E456F" opacity="1.000000" stroke="none" 
	d="
M642.041626,376.543549 
	C635.164185,376.962769 628.427307,376.930359 621.690430,376.902985 
	C619.577026,376.894409 617.444946,377.078735 615.353882,376.861877 
	C610.490967,376.357605 605.647705,375.662903 600.378235,375.067078 
	C595.004089,370.293518 590.048279,365.498199 585.468750,360.349060 
	C588.571472,360.471313 591.284241,361.234680 594.026978,361.363800 
	C599.849304,361.637939 605.696228,361.821350 611.516174,361.598969 
	C618.406311,361.335693 625.362366,359.723572 632.131226,360.366302 
	C637.241516,360.851532 640.360229,360.918854 640.931030,355.427856 
	C641.420471,356.474121 641.858704,357.177032 642.296997,357.879944 
	C642.258789,363.951263 642.220520,370.022552 642.041626,376.543549 
z"/>
<path fill="#175B87" opacity="1.000000" stroke="none" 
	d="
M560.827393,336.091522 
	C558.983643,334.546478 557.139832,333.001404 555.163940,331.140198 
	C557.116150,327.436432 560.072998,328.013824 563.390198,328.521423 
	C566.120178,328.939178 569.014099,328.233337 571.838928,328.101135 
	C574.087402,327.995911 576.343506,328.055359 578.592346,327.954956 
	C591.504578,327.378571 604.416138,326.786621 617.326965,326.178925 
	C625.275635,325.804779 633.222473,325.393250 641.613037,324.996918 
	C642.096924,326.714996 642.137939,328.434692 641.890503,330.721008 
	C641.351135,331.510101 641.155090,331.773285 640.984253,332.327332 
	C640.916626,332.740936 640.878418,332.904388 640.602173,333.296082 
	C638.178101,333.988495 636.008667,334.696075 633.801147,334.846405 
	C631.721741,334.988068 629.567566,334.202148 627.506287,334.412354 
	C616.829712,335.501373 606.174805,336.800995 595.505493,337.965088 
	C594.031738,338.125885 592.517151,337.995636 591.026794,337.908020 
	C580.959534,337.316406 570.893677,336.699951 560.827393,336.091522 
z"/>
<path fill="#868A90" opacity="1.000000" stroke="none" 
	d="
M640.840149,333.067871 
	C640.878418,332.904388 640.916626,332.740936 641.323975,332.298798 
	C641.920288,332.025085 642.147522,332.030029 642.374817,332.035004 
	C642.495056,340.429504 642.615234,348.824036 642.516235,357.549255 
	C641.858704,357.177032 641.420471,356.474121 640.995728,354.955048 
	C640.952820,347.115234 640.896484,340.091553 640.840149,333.067871 
z"/>
<path fill="#165A86" opacity="1.000000" stroke="none" 
	d="
M642.309814,331.765564 
	C642.147522,332.030029 641.920288,332.025085 641.353394,332.048676 
	C641.155090,331.773285 641.351135,331.510101 641.802246,331.142639 
	C642.083313,331.163788 642.164124,331.329987 642.309814,331.765564 
z"/>
<path fill="#06264B" opacity="1.000000" stroke="none" 
	d="
M561.660156,493.672028 
	C558.296082,493.811005 555.954224,493.125916 553.607300,489.833527 
	C552.086182,487.699554 547.368347,487.483002 544.003967,487.099213 
	C536.925232,486.291656 529.797180,485.898712 522.682373,485.444702 
	C521.619995,485.376862 520.080566,485.531281 519.509949,486.210968 
	C516.247742,490.096771 513.679016,488.697266 510.970123,485.580627 
	C510.286713,484.794281 508.975464,484.553558 507.606262,484.046265 
	C507.193634,471.334686 507.127472,458.638977 507.158752,445.486115 
	C512.170776,446.868866 515.565308,452.630768 521.934387,450.717438 
	C526.922546,458.204773 535.194885,453.457947 541.544373,455.939880 
	C543.038940,456.524078 544.807068,456.805206 546.395691,456.655670 
	C548.583130,456.449768 551.347473,456.378601 552.764648,455.063934 
	C557.786987,450.404877 566.959106,450.609955 571.026489,455.954742 
	C573.468018,459.163086 579.080750,460.608826 582.678223,457.926178 
	C586.746704,454.892273 589.474121,454.385437 591.383179,459.705627 
	C595.446899,457.043945 599.186157,454.594788 603.348328,452.223358 
	C592.960693,463.341888 582.150146,474.382660 571.183594,485.715759 
	C570.179688,486.649719 569.331848,487.291321 567.958618,488.226440 
	C567.179749,489.067810 566.926086,489.615753 566.672485,490.163696 
	C566.285034,490.315338 565.897522,490.467010 565.395996,490.894043 
	C565.281860,491.169403 565.237061,491.142670 565.237061,491.142670 
	C565.083008,491.344635 564.928955,491.546600 564.799561,492.147797 
	C564.824158,492.547058 564.825317,492.588898 564.621338,492.533173 
	C564.417297,492.477448 564.047974,492.683716 564.064819,492.400665 
	C564.003662,491.945374 563.925781,491.773163 563.630310,491.474243 
	C562.763245,492.015350 562.113770,492.683197 561.557617,493.404236 
	C561.650879,493.457458 561.660156,493.672028 561.660156,493.672028 
z"/>
<path fill="#868A90" opacity="1.000000" stroke="none" 
	d="
M558.573853,497.970215 
	C559.471130,496.715393 560.368347,495.460541 561.462891,493.938873 
	C561.660156,493.672028 561.650879,493.457458 561.918945,493.313293 
	C562.740601,492.646393 563.294250,492.123688 563.847900,491.600983 
	C563.925781,491.773163 564.003662,491.945374 564.147095,492.558197 
	C564.416870,492.862152 564.621094,492.725525 564.825317,492.588928 
	C564.825317,492.588898 564.824158,492.547058 564.811768,492.528564 
	C569.550476,490.712036 572.092041,493.925110 575.273621,496.605743 
	C582.695190,502.858734 590.438538,508.739136 598.181091,514.599243 
	C607.747620,521.839783 617.438782,528.916016 627.097595,536.034058 
	C628.024719,536.717285 629.158752,537.763794 630.103821,537.673096 
	C635.801453,537.126221 636.767761,541.249390 637.986023,545.609741 
	C631.315491,545.996338 624.628174,546.002319 617.387207,545.669922 
	C607.251343,536.419250 597.699707,527.473938 588.077209,518.605469 
	C580.844543,511.939636 573.636108,505.236328 566.130432,498.888428 
	C564.795105,497.759125 562.056763,498.288666 559.619019,498.018005 
	C559.039124,497.979279 558.806519,497.974762 558.573853,497.970215 
z"/>
<path fill="#A5AAAE" opacity="1.000000" stroke="none" 
	d="
M566.903625,490.080383 
	C566.926086,489.615753 567.179749,489.067810 567.738770,488.464294 
	C567.741089,488.938171 567.437927,489.467651 566.903625,490.080383 
z"/>
<path fill="#041D3C" opacity="1.000000" stroke="none" 
	d="
M565.235474,491.167480 
	C565.237061,491.142670 565.281860,491.169403 565.247314,491.174866 
	C565.212830,491.180298 565.233887,491.192291 565.235474,491.167480 
z"/>
<path fill="#777C83" opacity="1.000000" stroke="none" 
	d="
M559.966309,498.052246 
	C562.056763,498.288666 564.795105,497.759125 566.130432,498.888428 
	C573.636108,505.236328 580.844543,511.939636 588.077209,518.605469 
	C597.699707,527.473938 607.251343,536.419250 616.919006,545.658569 
	C615.590698,546.032776 614.176880,546.079834 612.341553,546.196899 
	C608.581787,546.195435 605.243530,546.123962 601.392822,545.692810 
	C598.864319,542.734497 597.095032,539.889038 594.787415,537.582153 
	C586.957031,529.754089 578.883179,522.169983 571.021118,514.372986 
	C568.695190,512.066345 567.216736,508.572723 564.539185,507.032196 
	C560.681824,504.812866 559.577087,502.020905 559.966309,498.052246 
z"/>
<path fill="#06264B" opacity="1.000000" stroke="none" 
	d="
M602.017212,379.360291 
	C602.895752,379.824738 603.797302,380.645813 604.846375,381.737915 
	C604.009399,381.244995 603.024780,380.480988 602.017212,379.360291 
z"/>
<path fill="#35393E" opacity="1.000000" stroke="none" 
	d="
M372.497681,417.261902 
	C371.945435,416.776947 371.855408,416.277771 371.819763,415.400818 
	C374.084412,413.646362 376.620972,412.606659 378.449554,410.835876 
	C387.275238,402.289124 395.915924,393.551086 404.605743,384.864410 
	C405.660614,383.809937 406.615875,382.655853 407.740417,381.240906 
	C408.352173,380.658936 408.840820,380.383972 409.975800,380.044037 
	C419.730804,381.223236 422.715729,389.105377 425.676544,395.675873 
	C428.183197,401.238495 427.821808,408.093536 428.817230,414.982819 
	C435.768585,414.982819 443.388824,414.982819 451.009033,414.982819 
	C468.043091,414.999054 485.077148,415.015289 502.585968,415.020691 
	C503.130676,415.483734 503.200623,415.957520 503.295776,416.791260 
	C487.345276,417.320404 471.369507,417.636871 455.393982,417.626038 
	C427.915863,417.607391 400.437897,417.384705 372.497681,417.261902 
z"/>
<path fill="#43474C" opacity="1.000000" stroke="none" 
	d="
M451.005127,414.559875 
	C443.388824,414.982819 435.768585,414.982819 428.817230,414.982819 
	C427.821808,408.093536 428.183197,401.238495 425.676544,395.675873 
	C422.715729,389.105377 419.730804,381.223236 410.228455,379.923523 
	C414.009949,375.675934 418.185150,371.483917 422.639832,367.117859 
	C427.010315,369.342224 431.334076,371.429932 435.104492,374.255981 
	C437.352142,375.940643 439.254333,378.554199 440.397552,381.152466 
	C443.280945,387.705750 445.875702,394.410706 448.134735,401.204956 
	C449.520447,405.372559 450.074005,409.816864 451.005127,414.559875 
z"/>
<path fill="#165A86" opacity="1.000000" stroke="none" 
	d="
M640.602173,333.296082 
	C640.896484,340.091553 640.952820,347.115234 640.944458,354.611755 
	C640.360229,360.918854 637.241516,360.851532 632.131226,360.366302 
	C625.362366,359.723572 618.406311,361.335693 611.516174,361.598969 
	C605.696228,361.821350 599.849304,361.637939 594.026978,361.363800 
	C591.284241,361.234680 588.571472,360.471313 585.409607,360.011200 
	C581.543152,357.032471 578.112183,354.037811 574.350464,350.937866 
	C569.749878,346.103668 565.480103,341.374756 561.018799,336.368713 
	C570.893677,336.699951 580.959534,337.316406 591.026794,337.908020 
	C592.517151,337.995636 594.031738,338.125885 595.505493,337.965088 
	C606.174805,336.800995 616.829712,335.501373 627.506287,334.412354 
	C629.567566,334.202148 631.721741,334.988068 633.801147,334.846405 
	C636.008667,334.696075 638.178101,333.988495 640.602173,333.296082 
z"/>
<path fill="#4CA8A9" opacity="1.000000" stroke="none" 
	d="
M403.004700,450.002441 
	C397.451416,444.525909 391.898102,439.049377 386.222931,433.264771 
	C393.981537,433.873962 401.851776,435.422150 409.745026,435.550171 
	C419.798279,435.713196 429.873627,434.787506 439.932098,434.204315 
	C443.552490,433.994385 447.143494,433.316925 450.761902,433.027008 
	C459.827606,432.300720 468.902435,431.689362 477.971375,431.002258 
	C484.355438,430.518585 490.759979,430.179138 497.106140,429.382843 
	C499.719269,429.054962 501.026672,429.710022 501.209534,432.173157 
	C501.576782,437.119171 501.767700,442.078278 501.598877,447.514648 
	C484.158691,448.998199 467.161560,450.487640 450.140167,450.856720 
	C434.441895,451.197144 418.717560,450.334930 403.004700,450.002441 
z"/>
<path fill="#439E9F" opacity="1.000000" stroke="none" 
	d="
M403.149170,450.302307 
	C418.717560,450.334930 434.441895,451.197144 450.140167,450.856720 
	C467.161560,450.487640 484.158691,448.998199 501.596130,447.978668 
	C502.202606,449.773529 502.379364,451.587097 502.910828,453.909698 
	C503.480103,454.674042 503.752716,454.823181 504.083374,454.866180 
	C504.074005,455.974945 504.064606,457.083740 503.554443,458.600677 
	C499.764740,459.339325 496.482178,459.767059 493.185791,459.983704 
	C477.767090,460.997131 462.344696,461.954895 446.922974,462.922150 
	C445.929932,462.984436 444.927582,463.023682 443.936005,462.964783 
	C434.198700,462.385986 424.462799,461.784210 414.726501,461.188904 
	C410.915558,457.659973 407.104614,454.131073 403.149170,450.302307 
z"/>
<path fill="#92979B" opacity="1.000000" stroke="none" 
	d="
M504.285797,454.655273 
	C503.752716,454.823181 503.480103,454.674042 503.125244,454.226685 
	C503.389709,453.440460 503.794556,452.846313 504.470276,452.209106 
	C504.656830,452.925446 504.572510,453.684937 504.285797,454.655273 
z"/>
<path fill="#287479" opacity="1.000000" stroke="none" 
	d="
M503.799927,495.676147 
	C503.125397,497.709564 502.194122,499.290985 502.120209,500.911560 
	C501.901093,505.714233 502.001312,510.532410 502.013641,515.344421 
	C502.021606,518.440674 500.641022,519.432678 497.455292,519.727478 
	C490.257629,520.393494 483.169586,520.122009 476.060822,519.037720 
	C475.300842,518.921753 474.460449,519.332825 473.342438,519.742554 
	C472.594147,519.939636 472.160767,519.893372 471.407501,519.783508 
	C466.297607,514.618530 461.520172,509.505280 456.707458,504.425415 
	C455.702789,503.364990 454.567810,502.428040 453.236420,501.222656 
	C448.671417,496.297272 444.362915,491.583405 440.224854,486.279907 
	C441.312531,485.730072 442.249481,485.663177 443.143372,485.828766 
	C446.414734,486.434937 449.651611,487.496124 452.939545,487.671112 
	C456.530914,487.862244 460.162506,487.227325 463.780029,487.010529 
	C471.289459,486.560455 478.806091,485.754303 486.310425,485.847229 
	C492.223511,485.920441 498.606598,484.491760 503.821167,488.944214 
	C503.859131,491.043518 503.897064,493.142792 503.799927,495.676147 
z"/>
<path fill="#3A8F91" opacity="1.000000" stroke="none" 
	d="
M414.844727,461.510162 
	C424.462799,461.784210 434.198700,462.385986 443.936005,462.964783 
	C444.927582,463.023682 445.929932,462.984436 446.922974,462.922150 
	C462.344696,461.954895 477.767090,460.997131 493.185791,459.983704 
	C496.482178,459.767059 499.764740,459.339325 503.484070,459.010834 
	C503.962433,464.036865 504.010376,469.060883 503.565674,474.520355 
	C498.961945,474.826263 494.851501,474.662689 490.739471,474.576996 
	C486.772369,474.494263 482.802704,474.530426 478.835754,474.442688 
	C475.349762,474.365570 471.864319,474.043427 468.381531,474.083252 
	C456.757202,474.216095 445.132111,474.398834 433.513611,474.762817 
	C432.323090,474.800140 431.174683,476.183929 430.006714,476.942871 
	C429.394287,476.458527 428.781860,475.974152 427.964539,475.270691 
	C423.494049,470.644836 419.228485,466.238129 414.844727,461.510162 
z"/>
<path fill="#308185" opacity="1.000000" stroke="none" 
	d="
M430.153442,477.248596 
	C431.174683,476.183929 432.323090,474.800140 433.513611,474.762817 
	C445.132111,474.398834 456.757202,474.216095 468.381531,474.083252 
	C471.864319,474.043427 475.349762,474.365570 478.835754,474.442688 
	C482.802704,474.530426 486.772369,474.494263 490.739471,474.576996 
	C494.851501,474.662689 498.961945,474.826263 503.480835,474.981232 
	C503.934540,479.352905 503.980438,483.699127 503.923767,488.494781 
	C498.606598,484.491760 492.223511,485.920441 486.310425,485.847229 
	C478.806091,485.754303 471.289459,486.560455 463.780029,487.010529 
	C460.162506,487.227325 456.530914,487.862244 452.939545,487.671112 
	C449.651611,487.496124 446.414734,486.434937 443.143372,485.828766 
	C442.249481,485.663177 441.312531,485.730072 440.149780,485.948792 
	C436.702911,483.322968 433.501556,480.438599 430.153442,477.248596 
z"/>
<path fill="#6C7076" opacity="1.000000" stroke="none" 
	d="
M559.619019,498.018005 
	C559.577087,502.020905 560.681824,504.812866 564.539185,507.032196 
	C567.216736,508.572723 568.695190,512.066345 571.021118,514.372986 
	C578.883179,522.169983 586.957031,529.754089 594.787415,537.582153 
	C597.095032,539.889038 598.864319,542.734497 600.935059,545.677429 
	C595.637390,546.017334 590.284851,546.013000 584.453125,545.645020 
	C583.412903,544.121643 583.073669,542.767822 582.255310,541.833557 
	C576.628906,535.410095 571.114868,528.866028 565.143372,522.773682 
	C559.970703,517.496277 554.242493,512.763428 548.759888,507.789856 
	C551.844360,504.601929 554.928772,501.414032 558.293518,498.098175 
	C558.806519,497.974762 559.039124,497.979279 559.619019,498.018005 
z"/>
<path fill="#5B5F66" opacity="1.000000" stroke="none" 
	d="
M548.482666,507.966522 
	C554.242493,512.763428 559.970703,517.496277 565.143372,522.773682 
	C571.114868,528.866028 576.628906,535.410095 582.255310,541.833557 
	C583.073669,542.767822 583.412903,544.121643 583.985229,545.644287 
	C571.233215,550.044922 562.113831,545.174500 557.466614,531.539978 
	C556.587524,528.960815 555.333740,527.821228 552.898743,526.496094 
	C549.689758,524.749817 547.391907,521.329102 543.805115,517.727295 
	C542.986755,518.201233 540.991943,519.362000 538.991577,520.513062 
	C537.408508,521.424072 535.818726,522.323425 533.992920,523.005249 
	C538.571045,517.902710 543.388245,513.022949 548.482666,507.966522 
z"/>
<path fill="#041D3C" opacity="1.000000" stroke="none" 
	d="
M563.630310,491.474243 
	C563.294250,492.123688 562.740601,492.646393 561.825684,493.260071 
	C562.113770,492.683197 562.763245,492.015350 563.630310,491.474243 
z"/>
<path fill="#92979B" opacity="1.000000" stroke="none" 
	d="
M564.621338,492.533203 
	C564.621094,492.725525 564.416870,492.862152 564.130310,492.841248 
	C564.047974,492.683716 564.417297,492.477448 564.621338,492.533203 
z"/>
</svg>